<?xml version="1.0" encoding="UTF-8"?>
<svg xmlns="http://www.w3.org/2000/svg" xmlns:xlink="http://www.w3.org/1999/xlink" width="375pt" height="375pt" viewBox="0 0 375 375" version="1.1">
<g id="surface44784">
<path style=" stroke:none;fill-rule:nonzero;fill:rgb(100%,93.333334%,63.921571%);fill-opacity:1;" d="M 165.722656 316.820312 L 164.558594 316.617188 C 157.261719 315.328125 149.949219 313.363281 142.824219 310.777344 L 141.71875 310.378906 L 101.058594 337.222656 L 103.96875 288.683594 L 103.074219 287.925781 C 97.296875 283.058594 91.917969 277.679688 87.085938 271.929688 L 86.324219 271.03125 L 37.78125 273.941406 L 64.625 233.289062 L 64.21875 232.175781 C 61.632812 225.039062 59.667969 217.726562 58.382812 210.441406 L 58.175781 209.277344 L 14.617188 187.5 L 58.175781 165.71875 L 58.382812 164.554688 C 59.667969 157.269531 61.632812 149.957031 64.21875 142.820312 L 64.621094 141.710938 L 37.78125 101.058594 L 86.320312 103.972656 L 87.078125 103.074219 C 91.917969 97.316406 97.296875 91.941406 103.070312 87.078125 L 103.964844 86.320312 L 101.058594 37.777344 L 141.71875 64.621094 L 142.824219 64.222656 C 149.949219 61.636719 157.261719 59.671875 164.558594 58.382812 L 165.722656 58.179688 L 187.5 14.617188 L 209.277344 58.175781 L 210.441406 58.378906 C 217.738281 59.667969 225.050781 61.632812 232.175781 64.21875 L 233.28125 64.617188 L 273.941406 37.773438 L 271.03125 86.320312 L 271.925781 87.078125 C 277.695312 91.9375 283.078125 97.316406 287.914062 103.074219 L 288.675781 103.972656 L 337.214844 101.058594 L 310.367188 141.710938 L 310.773438 142.820312 C 313.359375 149.953125 315.324219 157.269531 316.609375 164.554688 L 316.8125 165.71875 L 360.382812 187.5 L 316.824219 209.28125 L 316.617188 210.445312 C 315.332031 217.726562 313.367188 225.039062 310.78125 232.179688 L 310.378906 233.289062 L 337.222656 273.941406 L 288.683594 271.027344 L 287.925781 271.925781 C 283.09375 277.671875 277.710938 283.054688 271.9375 287.921875 L 271.039062 288.679688 L 273.953125 337.21875 L 233.292969 310.375 L 232.1875 310.773438 C 225.0625 313.359375 217.75 315.324219 210.449219 316.613281 L 209.289062 316.8125 L 187.5 360.382812 Z M 165.722656 316.820312 "/>
<path style=" stroke:none;fill-rule:nonzero;fill:rgb(72.941178%,60.784316%,28.235295%);fill-opacity:1;" d="M 187.5 19.855469 L 206.65625 58.171875 L 207.710938 60.28125 L 210.03125 60.695312 C 217.199219 61.960938 224.382812 63.886719 231.378906 66.425781 L 233.59375 67.226562 L 235.554688 65.929688 L 271.316406 42.320312 L 268.753906 85.007812 L 268.613281 87.359375 L 270.414062 88.875 C 276.070312 93.636719 281.351562 98.921875 286.121094 104.582031 L 287.632812 106.382812 L 289.984375 106.242188 L 332.671875 103.679688 L 309.0625 139.4375 L 307.761719 141.402344 L 308.5625 143.621094 C 311.101562 150.617188 313.03125 157.800781 314.296875 164.960938 L 314.710938 167.28125 L 316.820312 168.335938 L 355.144531 187.5 L 316.828125 206.65625 L 314.71875 207.710938 L 314.304688 210.03125 C 313.039062 217.195312 311.113281 224.375 308.574219 231.375 L 307.773438 233.59375 L 309.070312 235.554688 L 332.679688 271.316406 L 289.992188 268.753906 L 287.640625 268.613281 L 286.125 270.414062 C 281.367188 276.070312 276.078125 281.351562 270.417969 286.121094 L 268.617188 287.640625 L 268.757812 289.988281 L 271.320312 332.675781 L 235.5625 309.066406 L 233.597656 307.765625 L 231.378906 308.570312 C 224.382812 311.105469 217.199219 313.035156 210.03125 314.300781 L 207.710938 314.714844 L 206.65625 316.824219 L 187.5 355.144531 L 168.34375 316.828125 L 167.289062 314.71875 L 164.96875 314.304688 C 157.800781 313.039062 150.617188 311.109375 143.621094 308.574219 L 141.402344 307.773438 L 139.4375 309.070312 L 103.679688 332.679688 L 106.242188 289.992188 L 106.382812 287.644531 L 104.582031 286.125 C 98.921875 281.359375 93.632812 276.070312 88.875 270.417969 L 87.359375 268.617188 L 85.007812 268.757812 L 42.320312 271.320312 L 65.929688 235.5625 L 67.226562 233.597656 L 66.425781 231.378906 C 63.890625 224.382812 61.960938 217.199219 60.695312 210.039062 L 60.28125 207.71875 L 58.171875 206.664062 L 19.855469 187.5 L 58.171875 168.34375 L 60.28125 167.289062 L 60.695312 164.96875 C 61.960938 157.800781 63.886719 150.617188 66.425781 143.625 L 67.226562 141.40625 L 65.929688 139.445312 L 42.320312 103.683594 L 85.007812 106.246094 L 87.355469 106.386719 L 88.871094 104.585938 C 93.632812 98.925781 98.921875 93.640625 104.578125 88.878906 L 106.378906 87.367188 L 106.238281 85.011719 L 103.671875 42.324219 L 139.433594 65.933594 L 141.398438 67.234375 L 143.609375 66.429688 C 150.609375 63.894531 157.789062 61.964844 164.957031 60.699219 L 167.277344 60.285156 L 168.332031 58.175781 L 187.5 19.855469 M 187.5 9.375 L 164.152344 56.078125 C 156.523438 57.421875 149.148438 59.4375 142.023438 62.019531 L 98.4375 33.238281 L 101.5625 85.285156 C 95.679688 90.234375 90.238281 95.675781 85.289062 101.558594 L 33.238281 98.4375 L 62.015625 142.023438 C 59.433594 149.140625 57.421875 156.519531 56.070312 164.152344 L 9.375 187.5 L 56.078125 210.847656 C 57.421875 218.476562 59.433594 225.851562 62.019531 232.972656 L 33.238281 276.5625 L 85.285156 273.441406 C 90.234375 279.324219 95.679688 284.765625 101.558594 289.714844 L 98.4375 341.761719 L 142.023438 312.984375 C 149.140625 315.566406 156.523438 317.578125 164.152344 318.929688 L 187.5 365.625 L 210.847656 318.921875 C 218.476562 317.578125 225.851562 315.5625 232.976562 312.980469 L 276.5625 341.761719 L 273.4375 289.714844 C 279.320312 284.765625 284.761719 279.324219 289.710938 273.441406 L 341.761719 276.5625 L 312.984375 232.976562 C 315.566406 225.859375 317.578125 218.480469 318.929688 210.851562 L 365.625 187.5 L 318.921875 164.152344 C 317.578125 156.523438 315.566406 149.148438 312.980469 142.023438 L 341.761719 98.4375 L 289.714844 101.558594 C 284.765625 95.675781 279.324219 90.234375 273.441406 85.285156 L 276.5625 33.238281 L 232.976562 62.015625 C 225.859375 59.433594 218.480469 57.421875 210.847656 56.070312 Z M 187.5 9.375 "/>
<path style=" stroke:none;fill-rule:nonzero;fill:rgb(96.078432%,80.784315%,52.156866%);fill-opacity:1;" d="M 187.5 93.75 C 135.722656 93.75 93.75 135.722656 93.75 187.5 C 93.75 239.277344 135.722656 281.25 187.5 281.25 C 239.277344 281.25 281.25 239.277344 281.25 187.5 C 281.25 135.722656 239.277344 93.75 187.5 93.75 Z M 187.5 93.75 "/>
</g>
</svg>
