<?xml version="1.0" encoding="UTF-8"?>
<svg xmlns="http://www.w3.org/2000/svg" xmlns:xlink="http://www.w3.org/1999/xlink" width="375pt" height="375pt" viewBox="0 0 375 375" version="1.1">
<g id="surface44481">
<path style=" stroke:none;fill-rule:nonzero;fill:rgb(100%,93.333334%,63.921571%);fill-opacity:1;" d="M 100.257812 73.179688 L 67.613281 60.9375 L 100.257812 48.695312 L 112.5 16.050781 L 124.742188 48.695312 L 157.386719 60.9375 L 124.742188 73.179688 L 112.5 105.824219 Z M 100.257812 73.179688 "/>
<path style=" stroke:none;fill-rule:nonzero;fill:rgb(96.078432%,76.078433%,46.27451%);fill-opacity:1;" d="M 112.5 22.726562 L 122.175781 48.519531 L 122.925781 50.515625 L 124.921875 51.265625 L 150.710938 60.9375 L 124.917969 70.613281 L 122.921875 71.363281 L 122.171875 73.359375 L 112.5 99.148438 L 102.824219 73.355469 L 102.074219 71.359375 L 100.078125 70.609375 L 74.289062 60.9375 L 100.082031 51.261719 L 102.078125 50.511719 L 102.828125 48.515625 L 112.5 22.726562 M 112.5 9.375 L 98.4375 46.875 L 60.9375 60.9375 L 98.4375 75 L 112.5 112.5 L 126.5625 75 L 164.0625 60.9375 L 126.5625 46.875 Z M 112.5 9.375 "/>
<path style=" stroke:none;fill-rule:nonzero;fill:rgb(100%,93.333334%,63.921571%);fill-opacity:1;" d="M 44.042969 148.144531 L 21.472656 140.625 L 44.042969 133.105469 L 51.5625 110.535156 L 59.085938 133.105469 L 81.652344 140.625 L 59.085938 148.144531 L 51.5625 170.714844 Z M 44.042969 148.144531 "/>
<path style=" stroke:none;fill-rule:nonzero;fill:rgb(96.078432%,76.078433%,46.27451%);fill-opacity:1;" d="M 51.5625 117.945312 L 56.488281 132.730469 L 57.230469 134.953125 L 59.453125 135.695312 L 74.242188 140.625 L 59.457031 145.550781 L 57.234375 146.292969 L 56.492188 148.515625 L 51.5625 163.304688 L 46.636719 148.519531 L 45.894531 146.296875 L 43.671875 145.554688 L 28.882812 140.625 L 43.667969 135.699219 L 45.890625 134.957031 L 46.632812 132.734375 L 51.5625 117.945312 M 51.5625 103.125 L 42.1875 131.25 L 14.0625 140.625 L 42.1875 150 L 51.5625 178.125 L 60.9375 150 L 89.0625 140.625 L 60.9375 131.25 Z M 51.5625 103.125 "/>
<path style=" stroke:none;fill-rule:nonzero;fill:rgb(100%,93.333334%,63.921571%);fill-opacity:1;" d="M 225 363.28125 C 151.335938 363.28125 91.40625 303.351562 91.40625 229.6875 C 91.40625 156.023438 151.335938 96.09375 225 96.09375 C 233.839844 96.09375 242.875 97.054688 251.933594 98.957031 C 216.0625 114.371094 189.84375 155.023438 189.84375 196.875 C 189.84375 251.65625 231.15625 292.96875 285.9375 292.96875 C 308.5625 292.96875 334.117188 283.121094 353.054688 267.441406 C 336.445312 324.253906 284.84375 363.28125 225 363.28125 Z M 225 363.28125 "/>
<path style=" stroke:none;fill-rule:nonzero;fill:rgb(96.078432%,76.078433%,46.27451%);fill-opacity:1;" d="M 225 98.4375 C 231.390625 98.4375 237.886719 98.949219 244.425781 99.964844 C 211.148438 117.648438 187.5 156.726562 187.5 196.875 C 187.5 252.992188 229.820312 295.3125 285.9375 295.3125 C 306.75 295.3125 329.972656 287.179688 348.507812 273.898438 C 330.101562 325.828125 281.257812 360.9375 225 360.9375 C 152.628906 360.9375 93.75 302.058594 93.75 229.6875 C 93.75 157.316406 152.628906 98.4375 225 98.4375 M 225 93.75 C 149.925781 93.75 89.0625 154.613281 89.0625 229.6875 C 89.0625 304.761719 149.925781 365.625 225 365.625 C 289.460938 365.625 343.320312 320.710938 357.296875 260.503906 C 339.816406 277.460938 312.21875 290.625 285.9375 290.625 C 232.3125 290.625 192.1875 250.5 192.1875 196.875 C 192.1875 153.648438 220.898438 111.03125 259.941406 98.453125 C 248.769531 95.484375 237.101562 93.75 225 93.75 Z M 225 93.75 "/>
<path style=" stroke:none;fill-rule:nonzero;fill:rgb(100%,97.647059%,87.058824%);fill-opacity:1;" d="M 249.113281 328.125 C 305.574219 328.125 340.390625 285.257812 348.15625 274.128906 C 329.675781 287.269531 306.625 295.3125 285.9375 295.3125 C 229.820312 295.3125 187.5 252.992188 187.5 196.875 C 187.5 156.726562 211.148438 117.648438 244.425781 99.964844 C 235.546875 99.609375 135.9375 120.425781 135.9375 214.949219 C 135.9375 277.453125 186.609375 328.125 249.113281 328.125 Z M 249.113281 328.125 "/>
</g>
</svg>
