<?xml version="1.0" encoding="UTF-8"?>
<svg xmlns="http://www.w3.org/2000/svg" xmlns:xlink="http://www.w3.org/1999/xlink" width="375pt" height="375pt" viewBox="0 0 375 375" version="1.1">
<g id="surface44603">
<path style=" stroke:none;fill-rule:nonzero;fill:rgb(76.078433%,90.980393%,100%);fill-opacity:1;" d="M 60.730469 307.03125 L 59.4375 306.953125 C 27.421875 306.140625 2.34375 280.433594 2.34375 248.4375 C 2.34375 224.394531 16.78125 203.0625 39.125 194.085938 L 40.84375 193.398438 L 40.566406 191.5625 C 40.074219 188.25 39.84375 185.464844 39.84375 182.8125 C 39.84375 150.5 66.125 124.21875 98.4375 124.21875 C 103.472656 124.21875 108.632812 124.925781 113.78125 126.320312 L 116.140625 126.960938 L 116.675781 124.574219 C 124.210938 91.246094 153.332031 67.96875 187.5 67.96875 C 213.628906 67.96875 237.871094 82.148438 250.765625 104.976562 L 251.546875 106.351562 L 253.109375 106.148438 C 256.667969 105.683594 259.65625 105.46875 262.5 105.46875 C 299.230469 105.46875 330.214844 132.957031 334.585938 169.410156 L 334.71875 170.585938 L 335.75 171.171875 C 358.515625 184.078125 372.65625 208.292969 372.65625 234.375 C 372.65625 274.4375 340.0625 307.03125 300 307.03125 Z M 60.730469 307.03125 "/>
<path style=" stroke:none;fill-rule:nonzero;fill:rgb(45.490196%,58.823532%,76.862746%);fill-opacity:1;" d="M 187.5 70.3125 C 212.789062 70.3125 236.25 84.039062 248.726562 106.125 L 250.28125 108.871094 L 253.410156 108.46875 C 256.875 108.023438 259.761719 107.8125 262.5 107.8125 C 298.046875 107.8125 328.03125 134.414062 332.253906 169.6875 L 332.535156 172.039062 L 334.597656 173.207031 C 356.628906 185.699219 370.3125 209.136719 370.3125 234.375 C 370.3125 273.144531 338.769531 304.6875 300 304.6875 L 62.539062 304.6875 L 59.492188 304.609375 C 28.761719 303.828125 4.6875 279.15625 4.6875 248.4375 C 4.6875 225.359375 18.546875 204.875 40 196.261719 L 43.433594 194.878906 L 42.886719 191.210938 C 42.40625 188.03125 42.1875 185.363281 42.1875 182.8125 C 42.1875 151.796875 67.421875 126.5625 98.4375 126.5625 C 103.269531 126.5625 108.226562 127.242188 113.171875 128.582031 L 117.890625 129.863281 L 118.96875 125.089844 C 126.253906 92.839844 154.433594 70.3125 187.5 70.3125 M 187.5 65.625 C 151.78125 65.625 121.945312 90.617188 114.398438 124.058594 C 109.304688 122.675781 103.96875 121.875 98.4375 121.875 C 64.78125 121.875 37.5 149.15625 37.5 182.8125 C 37.5 185.910156 37.804688 188.933594 38.25 191.910156 C 15.84375 200.914062 0 222.804688 0 248.4375 C 0 281.5625 26.453125 308.460938 59.375 309.296875 L 59.375 309.375 L 300 309.375 C 341.421875 309.375 375 275.796875 375 234.375 C 375 206.386719 359.632812 182.019531 336.910156 169.132812 C 332.460938 131.957031 300.871094 103.125 262.5 103.125 C 259.210938 103.125 255.988281 103.410156 252.804688 103.824219 C 239.9375 81.039062 215.535156 65.625 187.5 65.625 Z M 187.5 65.625 "/>
</g>
</svg>
