<?xml version="1.0" encoding="UTF-8"?>
<svg xmlns="http://www.w3.org/2000/svg" xmlns:xlink="http://www.w3.org/1999/xlink" width="375pt" height="375pt" viewBox="0 0 375 375" version="1.1">
<g id="surface44517">
<path style=" stroke:none;fill-rule:nonzero;fill:rgb(100%,93.333334%,63.921571%);fill-opacity:1;" d="M 165.71875 316.820312 L 164.554688 316.617188 C 157.261719 315.328125 149.949219 313.367188 142.820312 310.78125 L 141.710938 310.382812 L 101.058594 337.222656 L 103.972656 288.683594 L 103.074219 287.925781 C 97.296875 283.058594 91.917969 277.679688 87.078125 271.929688 L 86.320312 271.03125 L 37.78125 273.941406 L 64.625 233.289062 L 64.226562 232.179688 C 61.640625 225.050781 59.675781 217.738281 58.386719 210.445312 L 58.1875 209.28125 L 14.617188 187.5 L 58.175781 165.71875 L 58.378906 164.554688 C 59.667969 157.257812 61.632812 149.945312 64.21875 142.820312 L 64.617188 141.710938 L 37.78125 101.058594 L 86.320312 103.972656 L 87.078125 103.074219 C 91.9375 97.308594 97.316406 91.925781 103.074219 87.085938 L 103.972656 86.324219 L 101.058594 37.777344 L 141.710938 64.621094 L 142.820312 64.222656 C 149.945312 61.636719 157.257812 59.671875 164.554688 58.382812 L 165.71875 58.179688 L 187.5 14.617188 L 209.28125 58.175781 L 210.445312 58.378906 C 217.742188 59.667969 225.054688 61.632812 232.179688 64.21875 L 233.289062 64.617188 L 273.941406 37.773438 L 271.027344 86.316406 L 271.925781 87.074219 C 277.683594 91.917969 283.058594 97.296875 287.921875 103.0625 L 288.679688 103.964844 L 337.21875 101.046875 L 310.375 141.703125 L 310.773438 142.808594 C 313.359375 149.933594 315.324219 157.246094 316.613281 164.546875 L 316.8125 165.707031 L 360.382812 187.5 L 316.824219 209.28125 L 316.621094 210.445312 C 315.332031 217.738281 313.367188 225.050781 310.78125 232.179688 L 310.382812 233.289062 L 337.226562 273.941406 L 288.6875 271.027344 L 287.929688 271.925781 C 283.09375 277.671875 277.714844 283.054688 271.9375 287.921875 L 271.035156 288.679688 L 273.953125 337.21875 L 233.296875 310.378906 L 232.179688 310.78125 C 225.050781 313.367188 217.734375 315.328125 210.445312 316.617188 L 209.28125 316.820312 L 187.5 360.382812 Z M 165.71875 316.820312 "/>
<path style=" stroke:none;fill-rule:nonzero;fill:rgb(72.941178%,60.784316%,28.235295%);fill-opacity:1;" d="M 187.5 19.855469 L 206.65625 58.171875 L 207.710938 60.28125 L 210.03125 60.695312 C 217.199219 61.960938 224.382812 63.886719 231.378906 66.425781 L 233.597656 67.226562 L 235.5625 65.929688 L 271.320312 42.320312 L 268.757812 85.007812 L 268.617188 87.359375 L 270.417969 88.878906 C 276.074219 93.640625 281.359375 98.925781 286.125 104.585938 L 287.644531 106.386719 L 289.992188 106.246094 L 332.679688 103.683594 L 309.070312 139.445312 L 307.773438 141.40625 L 308.574219 143.621094 C 311.109375 150.617188 313.039062 157.800781 314.304688 164.96875 L 314.71875 167.289062 L 316.828125 168.34375 L 355.144531 187.5 L 316.828125 206.65625 L 314.71875 207.710938 L 314.304688 210.03125 C 313.039062 217.199219 311.113281 224.375 308.574219 231.375 L 307.773438 233.585938 L 309.070312 235.550781 L 332.679688 271.3125 L 289.992188 268.75 L 287.640625 268.609375 L 286.121094 270.40625 C 281.363281 276.0625 276.074219 281.347656 270.414062 286.117188 L 268.613281 287.632812 L 268.753906 289.984375 L 271.316406 332.671875 L 235.554688 309.0625 L 233.59375 307.761719 L 231.378906 308.5625 C 224.382812 311.101562 217.199219 313.03125 210.03125 314.296875 L 207.710938 314.710938 L 206.65625 316.820312 L 187.5 355.144531 L 168.34375 316.828125 L 167.289062 314.71875 L 164.96875 314.304688 C 157.800781 313.039062 150.617188 311.109375 143.621094 308.574219 L 141.402344 307.773438 L 139.4375 309.070312 L 103.679688 332.679688 L 106.242188 289.992188 L 106.382812 287.644531 L 104.582031 286.125 C 98.921875 281.359375 93.632812 276.070312 88.875 270.417969 L 87.355469 268.617188 L 85.003906 268.757812 L 42.3125 271.320312 L 65.925781 235.5625 L 67.222656 233.597656 L 66.421875 231.382812 C 63.886719 224.386719 61.953125 217.203125 60.6875 210.042969 L 60.277344 207.722656 L 58.167969 206.667969 L 19.855469 187.5 L 58.171875 168.34375 L 60.28125 167.289062 L 60.695312 164.96875 C 61.960938 157.800781 63.886719 150.617188 66.425781 143.621094 L 67.226562 141.40625 L 65.929688 139.445312 L 42.320312 103.683594 L 85.007812 106.246094 L 87.355469 106.386719 L 88.875 104.585938 C 93.640625 98.925781 98.925781 93.640625 104.582031 88.878906 L 106.382812 87.359375 L 106.242188 85.007812 L 103.679688 42.320312 L 139.4375 65.929688 L 141.402344 67.226562 L 143.621094 66.425781 C 150.617188 63.890625 157.800781 61.960938 164.96875 60.695312 L 167.289062 60.28125 L 168.34375 58.171875 L 187.5 19.855469 M 187.5 9.375 L 164.152344 56.078125 C 156.523438 57.421875 149.148438 59.4375 142.023438 62.019531 L 98.4375 33.238281 L 101.558594 85.285156 C 95.675781 90.234375 90.234375 95.675781 85.285156 101.558594 L 33.238281 98.4375 L 62.015625 142.023438 C 59.433594 149.140625 57.421875 156.519531 56.070312 164.152344 L 9.375 187.5 L 56.078125 210.847656 C 57.421875 218.476562 59.4375 225.851562 62.019531 232.972656 L 33.238281 276.5625 L 85.285156 273.441406 C 90.234375 279.324219 95.679688 284.765625 101.558594 289.714844 L 98.4375 341.761719 L 142.023438 312.984375 C 149.140625 315.566406 156.523438 317.578125 164.152344 318.929688 L 187.5 365.625 L 210.847656 318.921875 C 218.476562 317.578125 225.851562 315.5625 232.976562 312.980469 L 276.5625 341.761719 L 273.441406 289.714844 C 279.324219 284.765625 284.765625 279.324219 289.714844 273.441406 L 341.761719 276.5625 L 312.984375 232.976562 C 315.566406 225.859375 317.578125 218.480469 318.929688 210.851562 L 365.625 187.5 L 318.921875 164.152344 C 317.578125 156.523438 315.5625 149.148438 312.980469 142.023438 L 341.761719 98.4375 L 289.714844 101.558594 C 284.765625 95.675781 279.324219 90.234375 273.441406 85.285156 L 276.5625 33.238281 L 232.976562 62.015625 C 225.859375 59.433594 218.480469 57.421875 210.847656 56.070312 Z M 187.5 9.375 "/>
<path style=" stroke:none;fill-rule:nonzero;fill:rgb(96.078432%,80.784315%,52.156866%);fill-opacity:1;" d="M 187.5 93.75 C 135.722656 93.75 93.75 135.722656 93.75 187.5 C 93.75 239.277344 135.722656 281.25 187.5 281.25 C 239.277344 281.25 281.25 239.277344 281.25 187.5 C 281.25 135.722656 239.277344 93.75 187.5 93.75 Z M 187.5 93.75 "/>
<path style=" stroke:none;fill-rule:nonzero;fill:rgb(88.235295%,92.156863%,94.901961%);fill-opacity:1;" d="M 250.78125 253.125 L 58.59375 253.125 C 46.992188 253.125 37.5 243.632812 37.5 232.03125 C 37.5 220.429688 46.992188 210.9375 58.59375 210.9375 L 250.78125 210.9375 C 262.382812 210.9375 271.875 220.429688 271.875 232.03125 C 271.875 243.632812 262.382812 253.125 250.78125 253.125 Z M 250.78125 253.125 "/>
<path style=" stroke:none;fill-rule:nonzero;fill:rgb(88.235295%,92.156863%,94.901961%);fill-opacity:1;" d="M 232.03125 290.625 L 49.21875 290.625 C 37.617188 290.625 28.125 281.132812 28.125 269.53125 C 28.125 257.929688 37.617188 248.4375 49.21875 248.4375 L 232.03125 248.4375 C 243.632812 248.4375 253.125 257.929688 253.125 269.53125 C 253.125 281.132812 243.632812 290.625 232.03125 290.625 Z M 344.53125 365.625 L 86.71875 365.625 C 75.117188 365.625 65.625 356.132812 65.625 344.53125 C 65.625 332.929688 75.117188 323.4375 86.71875 323.4375 L 344.53125 323.4375 C 356.132812 323.4375 365.625 332.929688 365.625 344.53125 C 365.625 356.132812 356.132812 365.625 344.53125 365.625 Z M 344.53125 365.625 "/>
<path style=" stroke:none;fill-rule:nonzero;fill:rgb(88.235295%,92.156863%,94.901961%);fill-opacity:1;" d="M 307.03125 328.125 L 30.46875 328.125 C 18.867188 328.125 9.375 318.632812 9.375 307.03125 C 9.375 295.429688 18.867188 285.9375 30.46875 285.9375 L 307.03125 285.9375 C 318.632812 285.9375 328.125 295.429688 328.125 307.03125 C 328.125 318.632812 318.632812 328.125 307.03125 328.125 Z M 142.96875 215.625 L 30.46875 215.625 C 18.867188 215.625 9.375 206.132812 9.375 194.53125 C 9.375 182.929688 18.867188 173.4375 30.46875 173.4375 L 142.96875 173.4375 C 154.570312 173.4375 164.0625 182.929688 164.0625 194.53125 C 164.0625 206.132812 154.570312 215.625 142.96875 215.625 Z M 142.96875 215.625 "/>
<path style=" stroke:none;fill-rule:nonzero;fill:rgb(94.901961%,98.039216%,100%);fill-opacity:1;" d="M 187.5 281.25 C 211.261719 281.25 232.890625 272.339844 249.414062 257.773438 C 248.203125 256.027344 246.765625 254.453125 245.105469 253.125 L 250.78125 253.125 C 252.144531 253.125 253.472656 252.96875 254.765625 252.722656 C 261.546875 245.726562 267.195312 237.664062 271.550781 228.835938 C 269.984375 218.746094 261.289062 210.9375 250.78125 210.9375 L 156.039062 210.9375 C 160.882812 207.066406 164.0625 201.179688 164.0625 194.53125 C 164.0625 182.929688 154.570312 173.4375 142.96875 173.4375 L 94.917969 173.4375 C 94.222656 178.035156 93.75 182.710938 93.75 187.5 C 93.75 239.277344 135.722656 281.25 187.5 281.25 Z M 187.5 281.25 "/>
<path style=" stroke:none;fill-rule:nonzero;fill:rgb(69.01961%,75.686276%,83.137256%);fill-opacity:1;" d="M 32.8125 323.4375 L 84.375 323.4375 L 84.375 328.125 L 32.8125 328.125 Z M 32.8125 323.4375 "/>
<path style=" stroke:none;fill-rule:nonzero;fill:rgb(69.01961%,75.686276%,83.137256%);fill-opacity:1;" d="M 49.6875 210.9375 L 44.0625 215.625 L 45.523438 215.625 C 40.679688 219.496094 37.5 225.382812 37.5 232.03125 C 37.5 238.867188 40.847656 244.914062 45.929688 248.769531 C 35.886719 250.375 28.125 259.054688 28.125 269.53125 C 28.125 276.179688 31.304688 282.066406 36.148438 285.9375 L 30.46875 285.9375 C 18.867188 285.9375 9.375 295.429688 9.375 307.03125 C 9.375 318.632812 18.867188 328.125 30.46875 328.125 L 32.8125 328.125 L 32.8125 323.4375 L 30.46875 323.4375 C 21.421875 323.4375 14.0625 316.078125 14.0625 307.03125 C 14.0625 297.984375 21.421875 290.625 30.46875 290.625 L 51.5625 290.625 L 51.5625 285.9375 L 49.21875 285.9375 C 40.171875 285.9375 32.8125 278.578125 32.8125 269.53125 C 32.8125 260.484375 40.171875 253.125 49.21875 253.125 L 60.9375 253.125 L 60.9375 248.4375 L 58.59375 248.4375 C 49.546875 248.4375 42.1875 241.078125 42.1875 232.03125 C 42.1875 222.984375 49.546875 215.625 58.59375 215.625 L 60.9375 215.625 L 60.9375 210.9375 Z M 49.6875 210.9375 "/>
<path style=" stroke:none;fill-rule:nonzero;fill:rgb(69.01961%,75.686276%,83.137256%);fill-opacity:1;" d="M 344.53125 323.4375 L 320.273438 323.4375 C 325.121094 319.566406 328.296875 313.679688 328.296875 307.03125 C 328.296875 295.429688 318.804688 285.9375 307.203125 285.9375 L 245.101562 285.9375 C 249.945312 282.066406 253.125 276.179688 253.125 269.53125 C 253.125 262.882812 249.945312 256.996094 245.101562 253.125 L 250.78125 253.125 C 262.382812 253.125 271.875 243.632812 271.875 232.03125 C 271.875 220.429688 262.382812 210.9375 250.78125 210.9375 L 156.039062 210.9375 C 160.882812 207.066406 164.0625 201.179688 164.0625 194.53125 C 164.0625 182.929688 154.570312 173.4375 142.96875 173.4375 L 30.46875 173.4375 C 18.867188 173.4375 9.375 182.929688 9.375 194.53125 C 9.375 206.132812 18.867188 215.625 30.46875 215.625 L 32.8125 215.625 L 32.8125 210.9375 L 30.46875 210.9375 C 21.421875 210.9375 14.0625 203.578125 14.0625 194.53125 C 14.0625 185.484375 21.421875 178.125 30.46875 178.125 L 142.96875 178.125 C 152.015625 178.125 159.375 185.484375 159.375 194.53125 C 159.375 203.578125 152.015625 210.9375 142.96875 210.9375 L 140.625 210.9375 L 140.625 215.625 L 250.78125 215.625 C 259.828125 215.625 267.1875 222.984375 267.1875 232.03125 C 267.1875 241.078125 259.828125 248.4375 250.78125 248.4375 L 229.6875 248.4375 L 229.6875 253.125 L 232.03125 253.125 C 241.078125 253.125 248.4375 260.484375 248.4375 269.53125 C 248.4375 278.578125 241.078125 285.9375 232.03125 285.9375 L 229.6875 285.9375 L 229.6875 290.625 L 307.199219 290.625 C 316.246094 290.625 323.605469 297.984375 323.605469 307.03125 C 323.605469 316.078125 316.246094 323.4375 307.199219 323.4375 L 304.6875 323.4375 L 304.6875 328.125 L 344.53125 328.125 C 353.578125 328.125 360.9375 335.484375 360.9375 344.53125 C 360.9375 353.578125 353.578125 360.9375 344.53125 360.9375 L 86.71875 360.9375 C 77.671875 360.9375 70.3125 353.578125 70.3125 344.53125 C 70.3125 335.484375 77.671875 328.125 86.71875 328.125 L 89.0625 328.125 L 89.0625 323.4375 L 78.375 323.4375 L 72.375 328.125 L 73.648438 328.125 C 68.804688 331.996094 65.625 337.882812 65.625 344.53125 C 65.625 356.132812 75.117188 365.625 86.71875 365.625 L 344.53125 365.625 C 356.132812 365.625 365.625 356.132812 365.625 344.53125 C 365.625 332.929688 356.132812 323.4375 344.53125 323.4375 Z M 344.53125 323.4375 "/>
<path style=" stroke:none;fill-rule:nonzero;fill:rgb(69.01961%,75.686276%,83.137256%);fill-opacity:1;" d="M 32.8125 210.9375 L 56.25 210.9375 L 56.25 215.625 L 32.8125 215.625 Z M 32.8125 210.9375 "/>
</g>
</svg>
