<?xml version="1.0" encoding="UTF-8"?>
<svg xmlns="http://www.w3.org/2000/svg" xmlns:xlink="http://www.w3.org/1999/xlink" width="375pt" height="375pt" viewBox="0 0 375 375" version="1.1">
<g id="surface44870">
<path style=" stroke:none;fill-rule:nonzero;fill:rgb(100%,93.333334%,63.921571%);fill-opacity:1;" d="M 79.414062 169.523438 L 78.46875 169.308594 C 76.902344 168.945312 75.347656 168.582031 73.832031 168.117188 L 72.898438 167.832031 L 49.085938 180.492188 L 48.140625 153.421875 L 47.433594 152.761719 C 46.289062 151.691406 45.1875 150.589844 44.117188 149.441406 L 43.453125 148.734375 L 16.398438 147.789062 L 29.054688 123.976562 L 28.765625 123.046875 C 28.296875 121.523438 27.929688 119.96875 27.570312 118.402344 L 27.355469 117.453125 L 4.421875 103.125 L 27.355469 88.789062 L 27.570312 87.84375 C 27.929688 86.277344 28.296875 84.71875 28.765625 83.199219 L 29.054688 82.269531 L 16.398438 58.457031 L 43.453125 57.515625 L 44.117188 56.804688 C 45.1875 55.65625 46.289062 54.554688 47.433594 53.484375 L 48.140625 52.824219 L 49.085938 25.765625 L 72.898438 38.429688 L 73.832031 38.140625 C 75.347656 37.671875 76.902344 37.308594 78.46875 36.953125 L 79.414062 36.734375 L 93.75 13.796875 L 108.085938 36.726562 L 109.03125 36.941406 C 110.597656 37.304688 112.152344 37.667969 113.667969 38.132812 L 114.601562 38.417969 L 138.414062 25.757812 L 139.359375 52.8125 L 140.066406 53.476562 C 141.210938 54.542969 142.3125 55.644531 143.382812 56.792969 L 144.046875 57.507812 L 171.101562 58.453125 L 158.445312 82.265625 L 158.734375 83.195312 C 159.203125 84.71875 159.570312 86.273438 159.929688 87.839844 L 160.144531 88.785156 L 183.078125 103.125 L 160.144531 117.460938 L 159.929688 118.40625 C 159.570312 119.972656 159.203125 121.53125 158.734375 123.050781 L 158.445312 123.980469 L 171.101562 147.792969 L 144.046875 148.734375 L 143.382812 149.445312 C 142.3125 150.59375 141.210938 151.695312 140.066406 152.765625 L 139.359375 153.421875 L 138.414062 180.484375 L 114.601562 167.820312 L 113.667969 168.109375 C 112.152344 168.578125 110.597656 168.941406 109.03125 169.296875 L 108.085938 169.515625 L 93.75 192.453125 Z M 79.414062 169.523438 "/>
<path style=" stroke:none;fill-rule:nonzero;fill:rgb(76.078433%,58.823532%,32.549021%);fill-opacity:1;" d="M 93.75 18.21875 L 105.582031 37.148438 L 106.613281 38.796875 L 108.507812 39.234375 C 110.058594 39.589844 111.5625 39.945312 112.992188 40.382812 L 114.84375 40.949219 L 116.558594 40.035156 L 136.199219 29.59375 L 136.984375 51.933594 L 137.046875 53.875 L 138.46875 55.195312 C 139.570312 56.222656 140.648438 57.300781 141.675781 58.402344 L 142.996094 59.820312 L 144.9375 59.886719 L 167.277344 60.671875 L 156.835938 80.3125 L 155.925781 82.03125 L 156.492188 83.886719 C 156.933594 85.320312 157.285156 86.828125 157.640625 88.375 L 158.078125 90.265625 L 159.726562 91.296875 L 178.65625 103.125 L 159.726562 114.953125 L 158.078125 115.984375 L 157.640625 117.875 C 157.285156 119.421875 156.929688 120.929688 156.492188 122.363281 L 155.925781 124.21875 L 156.839844 125.933594 L 167.277344 145.574219 L 144.9375 146.359375 L 142.996094 146.421875 L 141.675781 147.84375 C 140.648438 148.945312 139.570312 150.023438 138.46875 151.050781 L 137.046875 152.371094 L 136.984375 154.3125 L 136.199219 176.652344 L 116.558594 166.210938 L 114.84375 165.300781 L 112.988281 165.867188 C 111.566406 166.304688 110.054688 166.660156 108.5 167.015625 L 106.609375 167.453125 L 105.578125 169.101562 L 93.75 188.03125 L 81.921875 169.101562 L 80.890625 167.453125 L 79 167.015625 C 77.445312 166.660156 75.933594 166.304688 74.511719 165.867188 L 72.65625 165.300781 L 70.941406 166.214844 L 51.300781 176.65625 L 50.515625 154.316406 L 50.453125 152.375 L 49.03125 151.054688 C 47.929688 150.027344 46.851562 148.949219 45.824219 147.847656 L 44.503906 146.429688 L 42.5625 146.359375 L 20.222656 145.574219 L 30.660156 125.933594 L 31.574219 124.21875 L 31.007812 122.363281 C 30.566406 120.929688 30.214844 119.421875 29.859375 117.875 L 29.421875 115.984375 L 27.773438 114.953125 L 8.84375 103.125 L 27.773438 91.296875 L 29.421875 90.265625 L 29.859375 88.375 C 30.214844 86.828125 30.570312 85.320312 31.007812 83.886719 L 31.574219 82.03125 L 30.660156 80.316406 L 20.21875 60.675781 L 42.558594 59.890625 L 44.5 59.828125 L 45.820312 58.40625 C 46.847656 57.304688 47.925781 56.226562 49.027344 55.199219 L 50.445312 53.878906 L 50.511719 51.9375 L 51.296875 29.597656 L 70.9375 40.039062 L 72.65625 40.949219 L 74.511719 40.382812 C 75.9375 39.945312 77.445312 39.589844 79 39.234375 L 80.890625 38.796875 L 81.921875 37.148438 L 93.75 18.21875 M 93.75 9.375 L 77.945312 34.660156 C 76.328125 35.03125 74.710938 35.414062 73.140625 35.898438 L 46.875 21.9375 L 45.828125 51.773438 C 44.644531 52.878906 43.5 54.023438 42.398438 55.203125 L 12.5625 56.25 L 26.527344 82.515625 C 26.042969 84.089844 25.664062 85.703125 25.289062 87.320312 L 0 103.125 L 25.285156 118.925781 C 25.65625 120.542969 26.039062 122.160156 26.523438 123.730469 L 12.5625 150 L 42.398438 151.046875 C 43.503906 152.230469 44.648438 153.375 45.828125 154.476562 L 46.875 184.3125 L 73.140625 170.347656 C 74.714844 170.832031 76.328125 171.210938 77.949219 171.585938 L 93.75 196.875 L 109.550781 171.589844 C 111.167969 171.21875 112.785156 170.835938 114.359375 170.351562 L 140.625 184.3125 L 141.671875 154.476562 C 142.855469 153.371094 144 152.226562 145.101562 151.046875 L 174.9375 150 L 160.972656 123.734375 C 161.457031 122.160156 161.835938 120.546875 162.210938 118.929688 L 187.5 103.125 L 162.214844 87.324219 C 161.84375 85.707031 161.460938 84.089844 160.976562 82.519531 L 174.9375 56.25 L 145.101562 55.203125 C 143.996094 54.019531 142.851562 52.875 141.671875 51.773438 L 140.625 21.9375 L 114.359375 35.902344 C 112.785156 35.417969 111.171875 35.039062 109.554688 34.664062 Z M 93.75 9.375 "/>
<path style=" stroke:none;fill-rule:nonzero;fill:rgb(96.078432%,80.784315%,52.156866%);fill-opacity:1;" d="M 93.75 56.25 C 67.863281 56.25 46.875 77.238281 46.875 103.125 C 46.875 129.011719 67.863281 150 93.75 150 C 119.636719 150 140.625 129.011719 140.625 103.125 C 140.625 77.238281 119.636719 56.25 93.75 56.25 Z M 93.75 56.25 "/>
<path style=" stroke:none;fill-rule:nonzero;fill:rgb(88.235295%,92.156863%,94.901961%);fill-opacity:1;" d="M 65.625 335.15625 C 30.730469 335.15625 2.34375 306.769531 2.34375 271.875 C 2.34375 247.566406 16.597656 225.121094 38.65625 214.695312 L 39.929688 214.097656 L 39.992188 212.6875 C 41.554688 178.847656 69.28125 152.34375 103.125 152.34375 C 106.039062 152.34375 109.078125 152.597656 112.667969 153.140625 L 115.078125 153.507812 L 115.355469 151.09375 C 119.523438 114.394531 150.535156 86.71875 187.5 86.71875 C 213.628906 86.71875 237.871094 100.898438 250.765625 123.726562 L 251.546875 125.101562 L 253.109375 124.898438 C 256.667969 124.433594 259.65625 124.21875 262.5 124.21875 C 302.5625 124.21875 335.15625 156.8125 335.15625 196.875 L 335.128906 198.253906 L 336.289062 199.621094 C 358.71875 212.597656 372.65625 236.695312 372.65625 262.5 C 372.65625 302.5625 340.0625 335.15625 300 335.15625 Z M 65.625 335.15625 "/>
<path style=" stroke:none;fill-rule:nonzero;fill:rgb(69.01961%,75.686276%,83.137256%);fill-opacity:1;" d="M 187.5 89.0625 C 212.789062 89.0625 236.25 102.789062 248.726562 124.875 L 250.28125 127.621094 L 253.410156 127.21875 C 256.875 126.773438 259.761719 126.5625 262.5 126.5625 C 301.269531 126.5625 332.8125 158.105469 332.808594 196.902344 C 332.792969 197.117188 332.78125 197.335938 332.773438 197.550781 L 332.75 200.28125 L 335.117188 201.652344 C 356.828125 214.210938 370.3125 237.523438 370.3125 262.5 C 370.3125 301.269531 338.769531 332.8125 300 332.8125 L 65.625 332.8125 C 32.023438 332.8125 4.6875 305.476562 4.6875 271.875 C 4.6875 248.464844 18.414062 226.855469 39.65625 216.816406 L 42.207031 215.609375 L 42.335938 212.792969 C 43.835938 180.210938 70.539062 154.6875 103.125 154.6875 C 105.921875 154.6875 108.847656 154.929688 112.316406 155.460938 L 117.125 156.191406 L 117.675781 151.359375 C 121.714844 115.84375 151.730469 89.0625 187.5 89.0625 M 187.5 84.375 C 148.972656 84.375 117.273438 113.4375 113.019531 150.824219 C 109.785156 150.332031 106.5 150 103.125 150 C 67.914062 150 39.257812 177.757812 37.65625 212.578125 C 15.421875 223.082031 0 245.648438 0 271.875 C 0 308.117188 29.382812 337.5 65.625 337.5 L 300 337.5 C 341.421875 337.5 375 303.921875 375 262.5 C 375 234.742188 359.878906 210.5625 337.460938 197.59375 C 337.46875 197.351562 337.5 197.117188 337.5 196.875 C 337.5 155.453125 303.921875 121.875 262.5 121.875 C 259.210938 121.875 255.988281 122.160156 252.804688 122.570312 C 239.9375 99.789062 215.535156 84.375 187.5 84.375 Z M 187.5 84.375 "/>
<path style=" stroke:none;fill-rule:nonzero;fill:rgb(100%,100%,100%);fill-opacity:1;" d="M 41.65625 221.054688 L 44.207031 219.847656 L 46.757812 218.644531 L 46.890625 215.828125 L 47.019531 213.007812 C 48.402344 182.933594 73.050781 159.375 103.125 159.375 C 105.683594 159.375 108.382812 159.605469 111.613281 160.09375 L 116.421875 160.824219 L 121.234375 161.554688 L 122.328125 151.890625 C 126.101562 118.742188 154.117188 93.75 187.5 93.75 L 187.5 89.0625 C 151.730469 89.0625 121.714844 115.84375 117.679688 151.355469 L 117.132812 156.1875 L 112.320312 155.457031 C 108.847656 154.929688 105.921875 154.6875 103.125 154.6875 C 70.539062 154.6875 43.835938 180.210938 42.335938 212.792969 L 42.207031 215.609375 L 39.65625 216.816406 C 18.414062 226.855469 4.6875 248.464844 4.6875 271.875 L 9.375 271.875 C 9.375 250.269531 22.046875 230.320312 41.65625 221.054688 Z M 41.65625 221.054688 "/>
</g>
</svg>
