<?xml version="1.0" encoding="UTF-8"?>
<svg xmlns="http://www.w3.org/2000/svg" xmlns:xlink="http://www.w3.org/1999/xlink" width="375pt" height="375pt" viewBox="0 0 375 375" version="1.1">
<g id="surface44770">
<path style=" stroke:none;fill-rule:nonzero;fill:rgb(100%,93.333334%,63.921571%);fill-opacity:1;" d="M 89.0625 185.15625 C 41.246094 185.15625 2.34375 146.253906 2.34375 98.4375 C 2.34375 50.621094 41.246094 11.71875 89.0625 11.71875 C 91.5 11.71875 93.941406 11.820312 96.375 12.023438 C 70.925781 22.234375 53.90625 46.835938 53.90625 75 C 53.90625 112.476562 84.398438 142.96875 121.875 142.96875 C 141.757812 142.96875 160.261719 134.394531 173.078125 119.628906 C 163.53125 157.613281 129.027344 185.15625 89.0625 185.15625 Z M 89.0625 185.15625 "/>
<path style=" stroke:none;fill-rule:nonzero;fill:rgb(96.078432%,76.078433%,46.27451%);fill-opacity:1;" d="M 86.726562 14.09375 C 65.335938 26.347656 51.5625 49.234375 51.5625 75 C 51.5625 113.769531 83.105469 145.3125 121.875 145.3125 C 139.132812 145.3125 155.386719 139.074219 168 128.039062 C 155.90625 160.273438 124.71875 182.8125 89.0625 182.8125 C 42.539062 182.8125 4.6875 144.960938 4.6875 98.4375 C 4.6875 52.691406 41.277344 15.335938 86.726562 14.09375 M 89.0625 9.375 C 39.875 9.375 0 49.25 0 98.4375 C 0 147.625 39.875 187.5 89.0625 187.5 C 134.300781 187.5 171.570312 153.746094 177.28125 110.066406 C 165.640625 128.410156 145.210938 140.625 121.875 140.625 C 85.632812 140.625 56.25 111.242188 56.25 75 C 56.25 43.925781 77.875 17.957031 106.875 11.164062 C 101.117188 9.992188 95.164062 9.375 89.0625 9.375 Z M 89.0625 9.375 "/>
<path style=" stroke:none;fill-rule:nonzero;fill:rgb(100%,93.333334%,63.921571%);fill-opacity:1;" d="M 292.480469 77.835938 L 269.910156 70.3125 L 292.480469 62.792969 L 300 40.222656 L 307.523438 62.792969 L 330.089844 70.3125 L 307.523438 77.835938 L 300 100.402344 Z M 292.480469 77.835938 "/>
<path style=" stroke:none;fill-rule:nonzero;fill:rgb(96.078432%,76.078433%,46.27451%);fill-opacity:1;" d="M 300 47.632812 L 304.925781 62.417969 L 305.667969 64.640625 L 307.890625 65.382812 L 322.679688 70.3125 L 307.894531 75.238281 L 305.671875 75.980469 L 304.929688 78.203125 L 300 92.992188 L 295.074219 78.207031 L 294.332031 75.984375 L 292.109375 75.242188 L 277.320312 70.3125 L 292.105469 65.386719 L 294.328125 64.644531 L 295.070312 62.421875 L 300 47.632812 M 300 32.8125 L 290.625 60.9375 L 262.5 70.3125 L 290.625 79.6875 L 300 107.8125 L 309.375 79.6875 L 337.5 70.3125 L 309.375 60.9375 Z M 300 32.8125 "/>
<path style=" stroke:none;fill-rule:nonzero;fill:rgb(100%,93.333334%,63.921571%);fill-opacity:1;" d="M 225.566406 46.191406 L 213.542969 42.1875 L 225.566406 38.183594 L 229.570312 26.160156 L 233.578125 38.183594 L 245.597656 42.1875 L 233.578125 46.191406 L 229.570312 58.214844 Z M 225.566406 46.191406 "/>
<path style=" stroke:none;fill-rule:nonzero;fill:rgb(96.078432%,76.078433%,46.27451%);fill-opacity:1;" d="M 229.570312 33.570312 L 230.980469 37.808594 L 231.722656 40.03125 L 233.945312 40.773438 L 238.1875 42.1875 L 233.949219 43.597656 L 231.726562 44.339844 L 230.984375 46.5625 L 229.574219 50.796875 L 228.164062 46.5625 L 227.421875 44.339844 L 225.203125 43.597656 L 220.953125 42.1875 L 225.191406 40.777344 L 227.414062 40.035156 L 228.15625 37.8125 L 229.570312 33.570312 M 229.570312 18.75 L 223.710938 36.328125 L 206.132812 42.1875 L 223.710938 48.046875 L 229.570312 65.625 L 235.429688 48.046875 L 253.007812 42.1875 L 235.429688 36.328125 Z M 229.570312 18.75 "/>
<path style=" stroke:none;fill-rule:nonzero;fill:rgb(86.274511%,83.529413%,94.901961%);fill-opacity:1;" d="M 65.625 335.15625 C 30.730469 335.15625 2.34375 306.769531 2.34375 271.875 C 2.34375 247.566406 16.597656 225.121094 38.65625 214.695312 L 39.933594 214.097656 L 40 212.6875 C 41.554688 178.847656 69.285156 152.34375 103.125 152.34375 C 106.046875 152.34375 109.078125 152.597656 112.671875 153.140625 L 115.078125 153.507812 L 115.355469 151.09375 C 119.523438 114.394531 150.539062 86.71875 187.5 86.71875 C 213.632812 86.71875 237.871094 100.898438 250.765625 123.726562 L 251.546875 125.101562 L 253.109375 124.898438 C 256.667969 124.433594 259.65625 124.21875 262.5 124.21875 C 302.5625 124.21875 335.15625 156.8125 335.15625 196.875 L 335.117188 197.570312 L 335.105469 198.9375 L 336.285156 199.621094 C 358.71875 212.597656 372.65625 236.695312 372.65625 262.5 C 372.65625 302.5625 340.0625 335.15625 300 335.15625 Z M 65.625 335.15625 "/>
<path style=" stroke:none;fill-rule:nonzero;fill:rgb(65.098041%,57.647061%,73.725492%);fill-opacity:1;" d="M 187.5 89.0625 C 212.789062 89.0625 236.25 102.789062 248.726562 124.875 L 250.28125 127.621094 L 253.410156 127.21875 C 256.875 126.773438 259.761719 126.5625 262.5 126.5625 C 301.269531 126.5625 332.8125 158.105469 332.808594 196.902344 C 332.792969 197.117188 332.78125 197.335938 332.773438 197.550781 L 332.746094 200.28125 L 335.113281 201.652344 C 356.828125 214.210938 370.3125 237.523438 370.3125 262.5 C 370.3125 301.269531 338.769531 332.8125 300 332.8125 L 65.625 332.8125 C 32.023438 332.8125 4.6875 305.476562 4.6875 271.875 C 4.6875 248.464844 18.414062 226.855469 39.65625 216.816406 L 42.207031 215.609375 L 42.335938 212.792969 C 43.835938 180.210938 70.539062 154.6875 103.125 154.6875 C 105.921875 154.6875 108.847656 154.929688 112.316406 155.460938 L 117.125 156.191406 L 117.675781 151.359375 C 121.714844 115.84375 151.730469 89.0625 187.5 89.0625 M 187.5 84.375 C 148.972656 84.375 117.273438 113.4375 113.019531 150.824219 C 109.785156 150.332031 106.5 150 103.125 150 C 67.914062 150 39.257812 177.757812 37.65625 212.578125 C 15.421875 223.082031 0 245.648438 0 271.875 C 0 308.117188 29.382812 337.5 65.625 337.5 L 300 337.5 C 341.421875 337.5 375 303.921875 375 262.5 C 375 234.742188 359.878906 210.5625 337.460938 197.59375 C 337.46875 197.351562 337.5 197.117188 337.5 196.875 C 337.5 155.453125 303.921875 121.875 262.5 121.875 C 259.210938 121.875 255.988281 122.160156 252.804688 122.570312 C 239.9375 99.789062 215.535156 84.375 187.5 84.375 Z M 187.5 84.375 "/>
<path style=" stroke:none;fill-rule:nonzero;fill:rgb(96.862745%,96.078432%,100%);fill-opacity:1;" d="M 41.65625 221.054688 L 44.207031 219.847656 L 46.757812 218.644531 L 46.890625 215.828125 L 47.019531 213.007812 C 48.402344 182.933594 73.050781 159.375 103.125 159.375 C 105.683594 159.375 108.382812 159.605469 111.613281 160.09375 L 116.421875 160.824219 L 121.234375 161.554688 L 122.328125 151.890625 C 126.101562 118.742188 154.117188 93.75 187.5 93.75 L 187.5 89.0625 C 151.730469 89.0625 121.714844 115.84375 117.679688 151.355469 L 117.132812 156.1875 L 112.320312 155.457031 C 108.847656 154.929688 105.921875 154.6875 103.125 154.6875 C 70.539062 154.6875 43.835938 180.210938 42.335938 212.792969 L 42.207031 215.609375 L 39.65625 216.816406 C 18.414062 226.855469 4.6875 248.464844 4.6875 271.875 L 9.375 271.875 C 9.375 250.269531 22.046875 230.320312 41.65625 221.054688 Z M 41.65625 221.054688 "/>
</g>
</svg>
