<?xml version="1.0" encoding="UTF-8"?>
<svg xmlns="http://www.w3.org/2000/svg" xmlns:xlink="http://www.w3.org/1999/xlink" width="375pt" height="375pt" viewBox="0 0 375 375" version="1.1">
<g id="surface44745">
<path style=" stroke:none;fill-rule:nonzero;fill:rgb(88.235295%,92.156863%,94.901961%);fill-opacity:1;" d="M 75 260.15625 C 35.15625 260.15625 2.34375 227.34375 2.34375 187.5 C 2.34375 154.21875 24.84375 125.15625 57.1875 117.1875 L 59.0625 116.71875 L 59.0625 113.90625 C 59.0625 112.03125 58.59375 109.6875 58.59375 107.8125 C 58.59375 54.84375 101.71875 11.71875 154.6875 11.71875 C 199.6875 11.71875 238.125 42.1875 248.4375 86.25 L 248.90625 88.59375 L 251.25 88.125 C 255 87.1875 258.75 86.71875 262.5 86.71875 C 289.21875 86.71875 311.71875 105.9375 315.46875 132.1875 L 315.9375 134.0625 L 317.8125 134.0625 C 349.21875 138.28125 372.65625 165 372.65625 196.875 C 372.65625 231.5625 344.0625 260.15625 309.375 260.15625 Z M 75 260.15625 "/>
<path style=" stroke:none;fill-rule:nonzero;fill:rgb(69.01961%,75.686276%,83.137256%);fill-opacity:1;" d="M 154.6875 14.0625 C 198.75 14.0625 236.25 44.0625 246.09375 86.71875 L 247.03125 91.40625 L 251.71875 90.46875 C 255.46875 89.53125 259.21875 89.0625 262.5 89.0625 C 287.8125 89.0625 309.375 107.34375 313.59375 132.65625 L 314.0625 135.9375 L 317.34375 136.40625 C 347.34375 140.625 370.3125 166.40625 370.3125 196.875 C 370.3125 230.625 343.125 257.8125 309.375 257.8125 L 75 257.8125 C 36.09375 257.8125 4.6875 226.40625 4.6875 187.5 C 4.6875 155.15625 26.71875 127.5 57.65625 119.53125 L 61.40625 118.59375 L 60.9375 114.84375 L 60.9375 113.90625 C 60.9375 112.03125 60.46875 109.6875 60.46875 107.8125 C 60.9375 56.25 103.125 14.0625 154.6875 14.0625 M 154.6875 9.375 C 100.3125 9.375 56.25 53.4375 56.25 107.8125 C 56.25 110.15625 56.25 112.5 56.71875 114.84375 C 23.90625 123.28125 0 152.34375 0 187.5 C 0 228.75 33.75 262.5 75 262.5 L 309.375 262.5 C 345.46875 262.5 375 232.96875 375 196.875 C 375 163.59375 350.15625 135.9375 317.8125 131.71875 C 313.59375 105 290.625 84.375 262.5 84.375 C 258.28125 84.375 254.53125 84.84375 250.3125 85.78125 C 240.46875 42.1875 201.5625 9.375 154.6875 9.375 Z M 154.6875 9.375 "/>
<path style=" stroke:none;fill-rule:nonzero;fill:rgb(30.588236%,47.843137%,70.980394%);fill-opacity:1;" d="M 51.5625 365.625 C 50.625 365.625 50.15625 365.625 49.21875 365.15625 C 46.875 363.75 45.9375 360.9375 47.34375 359.0625 L 85.3125 284.0625 C 86.25 281.71875 89.53125 280.78125 91.40625 282.1875 C 93.75 283.59375 94.6875 286.40625 93.28125 288.28125 L 55.3125 363.28125 C 54.84375 364.6875 53.4375 365.625 51.5625 365.625 Z M 239.0625 365.625 C 238.125 365.625 237.65625 365.625 237.1875 365.15625 C 234.84375 364.21875 233.90625 361.40625 235.3125 359.0625 L 272.8125 284.0625 C 273.75 281.71875 276.5625 280.78125 278.90625 282.1875 C 281.25 283.125 282.1875 285.9375 280.78125 288.28125 L 243.28125 363.28125 C 242.34375 364.6875 240.9375 365.625 239.0625 365.625 Z M 145.3125 365.625 C 144.84375 365.625 143.90625 365.625 143.4375 365.15625 C 141.09375 364.21875 140.15625 361.40625 141.5625 359.0625 L 179.0625 284.0625 C 180 281.71875 182.8125 280.78125 185.15625 282.1875 C 187.5 283.125 188.4375 285.9375 187.03125 288.28125 L 149.53125 363.28125 C 148.59375 364.6875 147.1875 365.625 145.3125 365.625 Z M 107.8125 346.875 C 107.34375 346.875 106.40625 346.875 105.9375 346.40625 C 103.59375 345.46875 102.65625 342.65625 104.0625 340.3125 L 132.1875 284.0625 C 133.125 281.71875 135.9375 280.78125 138.28125 282.1875 C 140.625 283.125 141.5625 285.9375 140.15625 288.28125 L 112.03125 344.53125 C 111.09375 345.9375 109.6875 346.875 107.8125 346.875 Z M 201.09375 346.875 C 200.15625 346.875 199.6875 346.875 198.75 346.40625 C 196.875 345 195.9375 342.1875 196.875 339.84375 L 225.46875 283.59375 C 226.40625 281.25 229.6875 280.3125 231.5625 281.71875 C 233.90625 282.65625 234.84375 285.9375 233.4375 287.8125 L 204.84375 344.0625 C 204.84375 345.9375 202.96875 346.875 201.09375 346.875 Z M 201.09375 346.875 "/>
</g>
</svg>
