<?xml version="1.0" encoding="UTF-8"?>
<svg xmlns="http://www.w3.org/2000/svg" xmlns:xlink="http://www.w3.org/1999/xlink" width="375pt" height="375pt" viewBox="0 0 375 375" version="1.1">
<g id="surface44580">
<path style=" stroke:none;fill-rule:nonzero;fill:rgb(88.235295%,92.156863%,94.901961%);fill-opacity:1;" d="M 75 260.15625 C 34.9375 260.15625 2.34375 227.5625 2.34375 187.5 C 2.34375 154.226562 24.894531 125.292969 57.183594 117.140625 L 59.085938 116.65625 L 58.890625 113.945312 C 58.742188 111.914062 58.59375 109.878906 58.59375 107.8125 C 58.59375 54.824219 101.699219 11.71875 154.6875 11.71875 C 199.6875 11.71875 238.15625 42.347656 248.25 86.207031 L 248.769531 88.460938 L 251.03125 87.976562 C 254.859375 87.140625 258.71875 86.71875 262.5 86.71875 C 289.191406 86.71875 311.558594 105.863281 315.6875 132.242188 L 315.960938 133.976562 L 317.699219 134.207031 C 349.027344 138.332031 372.65625 165.273438 372.65625 196.875 C 372.65625 231.769531 344.269531 260.15625 309.375 260.15625 Z M 75 260.15625 "/>
<path style=" stroke:none;fill-rule:nonzero;fill:rgb(69.01961%,75.686276%,83.137256%);fill-opacity:1;" d="M 154.6875 14.0625 C 198.585938 14.0625 236.117188 43.945312 245.96875 86.734375 L 247.003906 91.242188 L 251.527344 90.261719 C 255.191406 89.464844 258.886719 89.0625 262.5 89.0625 C 288.027344 89.0625 309.421875 107.375 313.375 132.605469 L 313.917969 136.070312 L 317.394531 136.527344 C 347.558594 140.503906 370.3125 166.445312 370.3125 196.875 C 370.3125 230.476562 342.976562 257.8125 309.375 257.8125 L 75 257.8125 C 36.230469 257.8125 4.6875 226.269531 4.6875 187.5 C 4.6875 155.304688 26.507812 127.304688 57.753906 119.410156 L 61.5625 118.449219 L 61.285156 114.535156 L 61.226562 113.75 C 61.078125 111.699219 60.9375 109.761719 60.9375 107.8125 C 60.9375 56.117188 102.992188 14.0625 154.6875 14.0625 M 154.6875 9.375 C 100.320312 9.375 56.25 53.445312 56.25 107.8125 C 56.25 110.195312 56.441406 112.527344 56.605469 114.867188 C 24.09375 123.078125 0 152.4375 0 187.5 C 0 228.921875 33.578125 262.5 75 262.5 L 309.375 262.5 C 345.617188 262.5 375 233.117188 375 196.875 C 375 163.5625 350.160156 136.117188 318.003906 131.882812 C 313.796875 104.976562 290.582031 84.375 262.5 84.375 C 258.390625 84.375 254.394531 84.84375 250.539062 85.679688 C 240.484375 41.992188 201.429688 9.375 154.6875 9.375 Z M 154.6875 9.375 "/>
<path style=" stroke:none;fill-rule:nonzero;fill:rgb(54.509807%,71.764708%,94.117647%);fill-opacity:1;" d="M 89.0625 363.28125 C 77.433594 363.28125 67.96875 353.816406 67.96875 342.1875 C 67.96875 324.640625 93.09375 302.042969 101.703125 294.8125 C 104.011719 304.6875 110.15625 331.96875 110.15625 342.1875 C 110.15625 353.816406 100.691406 363.28125 89.0625 363.28125 Z M 89.0625 363.28125 "/>
<path style=" stroke:none;fill-rule:nonzero;fill:rgb(30.588236%,47.843137%,70.980394%);fill-opacity:1;" d="M 100.285156 299.070312 C 102.960938 310.78125 107.8125 333.273438 107.8125 342.1875 C 107.8125 352.527344 99.402344 360.9375 89.0625 360.9375 C 78.722656 360.9375 70.3125 352.527344 70.3125 342.1875 C 70.3125 328.273438 88.589844 309.3125 100.285156 299.070312 M 103.125 290.625 C 103.125 290.625 65.625 319.726562 65.625 342.1875 C 65.625 355.128906 76.121094 365.625 89.0625 365.625 C 102.003906 365.625 112.5 355.128906 112.5 342.1875 C 112.5 329.246094 103.125 290.625 103.125 290.625 Z M 103.125 290.625 "/>
<path style=" stroke:none;fill-rule:nonzero;fill:rgb(54.509807%,71.764708%,94.117647%);fill-opacity:1;" d="M 173.4375 297.65625 C 161.808594 297.65625 152.34375 288.191406 152.34375 276.5625 C 152.34375 259.015625 177.46875 236.417969 186.078125 229.1875 C 188.386719 239.0625 194.53125 266.34375 194.53125 276.5625 C 194.53125 288.191406 185.066406 297.65625 173.4375 297.65625 Z M 173.4375 297.65625 "/>
<path style=" stroke:none;fill-rule:nonzero;fill:rgb(30.588236%,47.843137%,70.980394%);fill-opacity:1;" d="M 184.660156 233.445312 C 187.335938 245.15625 192.1875 267.648438 192.1875 276.5625 C 192.1875 286.902344 183.777344 295.3125 173.4375 295.3125 C 163.097656 295.3125 154.6875 286.902344 154.6875 276.5625 C 154.6875 262.648438 172.964844 243.6875 184.660156 233.445312 M 187.5 225 C 187.5 225 150 254.101562 150 276.5625 C 150 289.503906 160.496094 300 173.4375 300 C 186.378906 300 196.875 289.503906 196.875 276.5625 C 196.875 263.621094 187.5 225 187.5 225 Z M 187.5 225 "/>
<path style=" stroke:none;fill-rule:nonzero;fill:rgb(54.509807%,71.764708%,94.117647%);fill-opacity:1;" d="M 239.0625 363.28125 C 227.433594 363.28125 217.96875 353.816406 217.96875 342.1875 C 217.96875 324.640625 243.09375 302.042969 251.703125 294.8125 C 254.011719 304.6875 260.15625 331.96875 260.15625 342.1875 C 260.15625 353.816406 250.691406 363.28125 239.0625 363.28125 Z M 239.0625 363.28125 "/>
<path style=" stroke:none;fill-rule:nonzero;fill:rgb(30.588236%,47.843137%,70.980394%);fill-opacity:1;" d="M 250.285156 299.070312 C 252.960938 310.78125 257.8125 333.273438 257.8125 342.1875 C 257.8125 352.527344 249.402344 360.9375 239.0625 360.9375 C 228.722656 360.9375 220.3125 352.527344 220.3125 342.1875 C 220.3125 328.273438 238.589844 309.3125 250.285156 299.070312 M 253.125 290.625 C 253.125 290.625 215.625 319.726562 215.625 342.1875 C 215.625 355.128906 226.121094 365.625 239.0625 365.625 C 252.003906 365.625 262.5 355.128906 262.5 342.1875 C 262.5 329.246094 253.125 290.625 253.125 290.625 Z M 253.125 290.625 "/>
</g>
</svg>
