<?xml version="1.0" encoding="UTF-8"?>
<svg xmlns="http://www.w3.org/2000/svg" xmlns:xlink="http://www.w3.org/1999/xlink" width="375pt" height="375pt" viewBox="0 0 375 375" version="1.1">
<g id="surface44533">
<path style=" stroke:none;fill-rule:nonzero;fill:rgb(100%,93.333334%,63.921571%);fill-opacity:1;" d="M 79.414062 169.523438 L 78.46875 169.308594 C 76.90625 168.945312 75.34375 168.582031 73.828125 168.117188 L 72.894531 167.832031 L 49.21875 180.414062 L 49.21875 154.378906 L 48.4375 153.679688 C 46.601562 152.039062 44.835938 150.273438 43.1875 148.433594 L 42.492188 147.65625 L 16.445312 147.65625 L 29 123.816406 L 28.71875 122.890625 C 28.273438 121.425781 27.917969 119.914062 27.566406 118.40625 L 27.351562 117.460938 L 4.421875 103.125 L 27.351562 88.789062 L 27.566406 87.84375 C 27.914062 86.335938 28.273438 84.824219 28.71875 83.351562 L 29 82.433594 L 16.445312 58.59375 L 42.492188 58.59375 L 43.191406 57.816406 C 44.839844 55.976562 46.601562 54.210938 48.441406 52.566406 L 49.21875 51.867188 L 49.21875 25.835938 L 72.894531 38.421875 L 73.824219 38.136719 C 75.347656 37.667969 76.902344 37.304688 78.46875 36.945312 L 79.414062 36.730469 L 93.75 13.796875 L 108.085938 36.726562 L 109.03125 36.941406 C 110.59375 37.304688 112.152344 37.667969 113.675781 38.132812 L 114.605469 38.417969 L 138.28125 25.835938 L 138.28125 51.867188 L 139.058594 52.566406 C 140.898438 54.214844 142.664062 55.976562 144.308594 57.816406 L 145.007812 58.59375 L 171.039062 58.59375 L 158.453125 82.269531 L 158.738281 83.199219 C 159.207031 84.722656 159.570312 86.277344 159.929688 87.84375 L 160.144531 88.789062 L 183.078125 103.125 L 160.148438 117.460938 L 159.933594 118.40625 C 159.570312 119.96875 159.207031 121.527344 158.742188 123.050781 L 158.457031 123.980469 L 171.113281 147.792969 L 144.054688 148.738281 L 143.394531 149.453125 C 142.328125 150.59375 141.21875 151.695312 140.078125 152.769531 L 139.359375 153.421875 L 138.414062 180.484375 L 114.601562 167.820312 L 113.667969 168.109375 C 112.148438 168.578125 110.585938 168.941406 109.027344 169.296875 L 108.078125 169.515625 L 93.75 192.453125 Z M 79.414062 169.523438 "/>
<path style=" stroke:none;fill-rule:nonzero;fill:rgb(76.078433%,58.823532%,32.549021%);fill-opacity:1;" d="M 93.75 18.21875 L 105.582031 37.148438 L 106.613281 38.796875 L 108.507812 39.234375 C 110.058594 39.589844 111.5625 39.945312 112.992188 40.382812 L 114.84375 40.949219 L 116.558594 40.035156 L 135.9375 29.738281 L 135.9375 52.914062 L 137.492188 54.308594 C 139.265625 55.898438 140.972656 57.605469 142.5625 59.375 L 143.960938 60.9375 L 167.136719 60.9375 L 156.839844 80.316406 L 155.925781 82.03125 L 156.492188 83.886719 C 156.933594 85.320312 157.285156 86.828125 157.640625 88.375 L 158.078125 90.265625 L 159.726562 91.296875 L 178.65625 103.125 L 159.726562 114.953125 L 158.078125 115.984375 L 157.640625 117.875 C 157.285156 119.421875 156.929688 120.929688 156.492188 122.363281 L 155.925781 124.21875 L 156.839844 125.933594 L 167.28125 145.574219 L 144.941406 146.359375 L 143 146.421875 L 141.679688 147.84375 C 140.652344 148.945312 139.574219 150.023438 138.472656 151.050781 L 137.054688 152.371094 L 136.988281 154.3125 L 136.203125 176.652344 L 116.5625 166.210938 L 114.84375 165.300781 L 112.988281 165.867188 C 111.566406 166.304688 110.054688 166.660156 108.5 167.015625 L 106.609375 167.453125 L 105.578125 169.101562 L 93.75 188.03125 L 81.921875 169.101562 L 80.890625 167.453125 L 79 167.015625 C 77.445312 166.660156 75.933594 166.304688 74.511719 165.867188 L 72.65625 165.300781 L 70.941406 166.214844 L 51.5625 176.511719 L 51.5625 153.332031 L 50.007812 151.9375 C 48.234375 150.347656 46.527344 148.640625 44.9375 146.867188 L 43.539062 145.3125 L 20.324219 145.3125 L 30.625 125.757812 L 31.519531 124.050781 L 30.960938 122.207031 C 30.523438 120.773438 30.160156 119.222656 29.851562 117.875 L 29.414062 115.984375 L 27.765625 114.953125 L 8.84375 103.125 L 27.773438 91.296875 L 29.421875 90.265625 L 29.859375 88.375 C 30.167969 87.03125 30.535156 85.476562 30.96875 84.042969 L 31.527344 82.199219 L 30.632812 80.5 L 20.324219 60.9375 L 43.539062 60.9375 L 44.933594 59.382812 C 46.523438 57.609375 48.230469 55.902344 50 54.3125 L 51.5625 52.914062 L 51.5625 29.738281 L 70.941406 40.035156 L 72.65625 40.949219 L 74.511719 40.382812 C 75.9375 39.945312 77.445312 39.589844 79 39.234375 L 80.890625 38.796875 L 81.921875 37.148438 L 93.75 18.21875 M 93.75 9.375 L 77.945312 34.660156 C 76.328125 35.03125 74.710938 35.414062 73.140625 35.898438 L 46.875 21.9375 L 46.875 50.828125 C 44.96875 52.53125 43.15625 54.34375 41.445312 56.25 L 12.558594 56.25 L 26.480469 82.679688 C 26.015625 84.203125 25.644531 85.757812 25.285156 87.324219 L 0 103.125 L 25.285156 118.925781 C 25.644531 120.488281 26.015625 122.046875 26.480469 123.570312 L 12.558594 150 L 41.445312 150 C 43.15625 151.90625 44.96875 153.71875 46.875 155.429688 L 46.875 184.316406 L 73.140625 170.351562 C 74.714844 170.835938 76.328125 171.214844 77.949219 171.589844 L 93.75 196.875 L 109.550781 171.589844 C 111.167969 171.21875 112.785156 170.835938 114.359375 170.351562 L 140.625 184.3125 L 141.671875 154.476562 C 142.855469 153.371094 144 152.226562 145.101562 151.046875 L 174.9375 150 L 160.972656 123.734375 C 161.457031 122.160156 161.835938 120.546875 162.210938 118.929688 L 187.5 103.125 L 162.214844 87.324219 C 161.84375 85.707031 161.460938 84.089844 160.976562 82.519531 L 174.9375 56.25 L 146.046875 56.25 C 144.335938 54.34375 142.527344 52.53125 140.621094 50.820312 L 140.621094 21.9375 L 114.355469 35.902344 C 112.78125 35.417969 111.167969 35.039062 109.550781 34.664062 Z M 93.75 9.375 "/>
<path style=" stroke:none;fill-rule:nonzero;fill:rgb(96.078432%,80.784315%,52.156866%);fill-opacity:1;" d="M 93.75 56.25 C 67.863281 56.25 46.875 77.238281 46.875 103.125 C 46.875 129.011719 67.863281 150 93.75 150 C 119.636719 150 140.625 129.011719 140.625 103.125 C 140.625 77.238281 119.636719 56.25 93.75 56.25 Z M 93.75 56.25 "/>
<path style=" stroke:none;fill-rule:nonzero;fill:rgb(88.235295%,92.156863%,94.901961%);fill-opacity:1;" d="M 75 288.28125 C 45.277344 288.28125 21.09375 264.097656 21.09375 234.375 C 21.09375 211.542969 35.597656 191.113281 57.1875 183.542969 L 58.835938 182.960938 L 58.683594 180.078125 C 58.640625 179.433594 58.59375 178.785156 58.59375 178.125 C 58.59375 143.230469 86.980469 114.84375 121.875 114.84375 L 123.964844 114.867188 L 124.84375 112.824219 C 129.359375 76.5625 160.328125 49.21875 196.875 49.21875 C 222.835938 49.21875 246.992188 63.265625 259.929688 85.882812 L 260.6875 87.203125 L 262.195312 87.050781 C 264.4375 86.832031 266.640625 86.71875 268.75 86.71875 C 305.367188 86.71875 335.15625 116.507812 335.15625 153.125 C 335.15625 154.523438 335.058594 155.898438 334.960938 157.269531 L 334.808594 159.394531 L 336.167969 160.105469 C 358.671875 171.894531 372.65625 194.96875 372.65625 220.3125 C 372.65625 255.941406 344.792969 285.699219 309.21875 288.050781 L 307.03125 288.195312 L 307.03125 288.28125 Z M 75 288.28125 "/>
<path style=" stroke:none;fill-rule:nonzero;fill:rgb(69.01961%,75.686276%,83.137256%);fill-opacity:1;" d="M 196.875 51.5625 C 221.996094 51.5625 245.375 65.160156 257.898438 87.046875 L 259.402344 89.679688 L 262.421875 89.386719 C 264.59375 89.171875 266.722656 89.0625 268.75 89.0625 C 304.074219 89.0625 332.8125 117.800781 332.8125 153.125 C 332.8125 154.472656 332.714844 155.796875 332.617188 157.121094 L 332.574219 157.703125 L 332.359375 160.761719 L 335.078125 162.1875 C 356.8125 173.570312 370.3125 195.84375 370.3125 220.3125 C 370.3125 254.714844 343.410156 283.4375 309.066406 285.710938 L 305.644531 285.9375 L 75 285.9375 C 46.570312 285.9375 23.4375 262.804688 23.4375 234.375 C 23.4375 212.535156 37.3125 193 57.960938 185.757812 L 61.261719 184.597656 L 61.09375 181.105469 L 61.015625 179.914062 C 60.980469 179.320312 60.9375 178.730469 60.9375 178.125 C 60.9375 144.523438 88.269531 117.191406 121.855469 117.191406 C 121.855469 117.191406 121.859375 117.191406 121.859375 117.191406 C 122.0625 117.207031 122.269531 117.21875 122.476562 117.21875 L 126.652344 117.257812 L 127.167969 113.109375 C 131.539062 78.023438 161.507812 51.5625 196.875 51.5625 M 196.875 46.875 C 158.625 46.875 127.125 75.53125 122.515625 112.53125 C 122.300781 112.527344 122.089844 112.5 121.875 112.5 C 85.632812 112.5 56.25 141.882812 56.25 178.125 C 56.25 179.207031 56.359375 180.261719 56.414062 181.335938 C 34.496094 189.019531 18.75 209.832031 18.75 234.375 C 18.75 265.4375 43.9375 290.625 75 290.625 L 309.375 290.625 L 309.375 290.390625 C 346.011719 287.96875 375 257.5625 375 220.3125 C 375 193.238281 359.675781 169.777344 337.25 158.03125 C 337.367188 156.402344 337.5 154.78125 337.5 153.125 C 337.5 115.152344 306.722656 84.375 268.75 84.375 C 266.460938 84.375 264.195312 84.496094 261.964844 84.71875 C 249.042969 62.128906 224.761719 46.875 196.875 46.875 Z M 196.875 46.875 "/>
<path style=" stroke:none;fill-rule:nonzero;fill:rgb(100%,100%,100%);fill-opacity:1;" d="M 59.511719 190.179688 L 66.113281 187.867188 L 65.945312 184.375 L 65.769531 180.820312 L 65.6875 179.464844 C 65.65625 179.019531 65.625 178.574219 65.625 178.125 C 65.625 163.125 71.484375 149.011719 82.117188 138.371094 C 92.714844 127.773438 106.761719 121.917969 121.707031 121.875 C 121.945312 121.890625 122.183594 121.902344 122.433594 121.902344 L 126.609375 121.941406 L 130.785156 121.976562 L 131.300781 117.828125 L 131.816406 113.6875 C 135.898438 80.945312 163.867188 56.25 196.875 56.25 L 196.875 51.5625 C 161.507812 51.5625 131.539062 78.023438 127.167969 113.109375 L 126.652344 117.257812 L 122.476562 117.21875 C 122.269531 117.21875 122.066406 117.207031 121.867188 117.191406 L 121.859375 117.191406 C 88.269531 117.191406 60.9375 144.523438 60.9375 178.125 C 60.9375 178.730469 60.980469 179.320312 61.023438 179.914062 L 61.097656 181.105469 L 61.265625 184.597656 L 57.964844 185.757812 C 37.3125 193 23.4375 212.535156 23.4375 234.375 L 28.125 234.375 C 28.125 214.523438 40.738281 196.761719 59.511719 190.179688 Z M 59.511719 190.179688 "/>
<path style=" stroke:none;fill-rule:nonzero;fill:rgb(54.509807%,71.764708%,94.117647%);fill-opacity:1;" d="M 107.8125 363.28125 C 96.183594 363.28125 86.71875 353.816406 86.71875 342.1875 C 86.71875 324.640625 111.84375 302.042969 120.453125 294.8125 C 122.761719 304.6875 128.90625 331.96875 128.90625 342.1875 C 128.90625 353.816406 119.441406 363.28125 107.8125 363.28125 Z M 107.8125 363.28125 "/>
<path style=" stroke:none;fill-rule:nonzero;fill:rgb(30.588236%,47.843137%,70.980394%);fill-opacity:1;" d="M 119.035156 299.070312 C 121.710938 310.78125 126.5625 333.273438 126.5625 342.1875 C 126.5625 352.527344 118.152344 360.9375 107.8125 360.9375 C 97.472656 360.9375 89.0625 352.527344 89.0625 342.1875 C 89.0625 328.273438 107.339844 309.3125 119.035156 299.070312 M 121.875 290.625 C 121.875 290.625 84.375 319.726562 84.375 342.1875 C 84.375 355.128906 94.871094 365.625 107.8125 365.625 C 120.753906 365.625 131.25 355.128906 131.25 342.1875 C 131.25 329.246094 121.875 290.625 121.875 290.625 Z M 121.875 290.625 "/>
<path style=" stroke:none;fill-rule:nonzero;fill:rgb(54.509807%,71.764708%,94.117647%);fill-opacity:1;" d="M 192.1875 297.65625 C 180.558594 297.65625 171.09375 288.191406 171.09375 276.5625 C 171.09375 259.015625 196.21875 236.417969 204.828125 229.1875 C 207.136719 239.0625 213.28125 266.34375 213.28125 276.5625 C 213.28125 288.191406 203.816406 297.65625 192.1875 297.65625 Z M 192.1875 297.65625 "/>
<path style=" stroke:none;fill-rule:nonzero;fill:rgb(30.588236%,47.843137%,70.980394%);fill-opacity:1;" d="M 203.410156 233.445312 C 206.085938 245.15625 210.9375 267.648438 210.9375 276.5625 C 210.9375 286.902344 202.527344 295.3125 192.1875 295.3125 C 181.847656 295.3125 173.4375 286.902344 173.4375 276.5625 C 173.4375 262.648438 191.714844 243.6875 203.410156 233.445312 M 206.25 225 C 206.25 225 168.75 254.101562 168.75 276.5625 C 168.75 289.503906 179.246094 300 192.1875 300 C 205.128906 300 215.625 289.503906 215.625 276.5625 C 215.625 263.621094 206.25 225 206.25 225 Z M 206.25 225 "/>
<path style=" stroke:none;fill-rule:nonzero;fill:rgb(54.509807%,71.764708%,94.117647%);fill-opacity:1;" d="M 257.8125 363.28125 C 246.183594 363.28125 236.71875 353.816406 236.71875 342.1875 C 236.71875 324.640625 261.84375 302.042969 270.453125 294.8125 C 272.761719 304.6875 278.90625 331.96875 278.90625 342.1875 C 278.90625 353.816406 269.441406 363.28125 257.8125 363.28125 Z M 257.8125 363.28125 "/>
<path style=" stroke:none;fill-rule:nonzero;fill:rgb(30.588236%,47.843137%,70.980394%);fill-opacity:1;" d="M 269.035156 299.070312 C 271.710938 310.78125 276.5625 333.273438 276.5625 342.1875 C 276.5625 352.527344 268.152344 360.9375 257.8125 360.9375 C 247.472656 360.9375 239.0625 352.527344 239.0625 342.1875 C 239.0625 328.273438 257.339844 309.3125 269.035156 299.070312 M 271.875 290.625 C 271.875 290.625 234.375 319.726562 234.375 342.1875 C 234.375 355.128906 244.871094 365.625 257.8125 365.625 C 270.753906 365.625 281.25 355.128906 281.25 342.1875 C 281.25 329.246094 271.875 290.625 271.875 290.625 Z M 271.875 290.625 "/>
</g>
</svg>
