<?xml version="1.0" encoding="UTF-8"?>
<svg xmlns="http://www.w3.org/2000/svg" xmlns:xlink="http://www.w3.org/1999/xlink" width="375pt" height="375pt" viewBox="0 0 375 375" version="1.1">
<g id="surface44550">
<path style=" stroke:none;fill-rule:nonzero;fill:rgb(88.235295%,92.156863%,94.901961%);fill-opacity:1;" d="M 75 260.625 C 35.15625 260.625 2.34375 227.8125 2.34375 187.96875 C 2.34375 154.6875 24.84375 125.625 57.1875 117.65625 L 59.0625 117.1875 L 59.0625 114.375 C 59.0625 112.5 58.59375 110.15625 58.59375 108.28125 C 58.59375 55.3125 101.71875 12.1875 154.6875 12.1875 C 199.6875 12.1875 238.125 42.65625 248.4375 86.71875 L 248.90625 89.0625 L 251.25 88.59375 C 255 87.65625 258.75 87.1875 262.5 87.1875 C 289.21875 87.1875 311.71875 106.40625 315.46875 132.65625 L 315.9375 134.53125 L 317.8125 134.53125 C 349.21875 138.75 372.65625 165.46875 372.65625 197.34375 C 372.65625 232.03125 344.0625 260.625 309.375 260.625 Z M 75 260.625 "/>
<path style=" stroke:none;fill-rule:nonzero;fill:rgb(69.01961%,75.686276%,83.137256%);fill-opacity:1;" d="M 154.6875 14.53125 C 198.75 14.53125 236.25 44.53125 246.09375 87.1875 L 247.03125 91.875 L 251.71875 90.9375 C 255.46875 90 259.21875 89.53125 262.5 89.53125 C 287.8125 89.53125 309.375 107.8125 313.59375 133.125 L 314.0625 136.40625 L 317.34375 136.875 C 347.34375 141.09375 370.3125 166.875 370.3125 197.34375 C 370.3125 231.09375 343.125 258.28125 309.375 258.28125 L 75 258.28125 C 36.09375 258.28125 4.6875 226.875 4.6875 187.96875 C 4.6875 155.625 26.71875 127.96875 57.65625 120 L 61.40625 119.0625 L 60.9375 115.3125 L 60.9375 114.375 C 60.9375 112.5 60.46875 110.15625 60.46875 108.28125 C 60.9375 56.71875 103.125 14.53125 154.6875 14.53125 M 154.6875 9.84375 C 100.3125 9.84375 56.25 53.90625 56.25 108.28125 C 56.25 110.625 56.25 112.96875 56.71875 115.3125 C 23.90625 123.28125 0 152.8125 0 187.96875 C 0 229.21875 33.75 262.96875 75 262.96875 L 309.375 262.96875 C 345.46875 262.96875 375 233.4375 375 197.34375 C 375 164.0625 350.15625 136.40625 317.8125 132.1875 C 313.59375 105.46875 290.625 84.84375 262.5 84.84375 C 258.28125 84.84375 254.53125 85.3125 250.3125 86.25 C 240.46875 42.1875 201.5625 9.84375 154.6875 9.84375 Z M 154.6875 9.84375 "/>
<path style=" stroke:none;fill-rule:nonzero;fill:rgb(30.588236%,47.843137%,70.980394%);fill-opacity:1;" d="M 140.625 253.59375 L 215.625 253.59375 L 215.625 262.96875 L 140.625 262.96875 Z M 140.625 253.59375 "/>
<path style=" stroke:none;fill-rule:nonzero;fill:rgb(30.588236%,47.843137%,70.980394%);fill-opacity:1;" d="M 153.53125 229.597656 L 161.34375 224.417969 L 202.804688 286.914062 L 194.992188 292.097656 Z M 153.53125 229.597656 "/>
<path style=" stroke:none;fill-rule:nonzero;fill:rgb(30.588236%,47.843137%,70.980394%);fill-opacity:1;" d="M 153.5625 286.914062 L 195.015625 224.410156 L 202.828125 229.59375 L 161.375 292.097656 Z M 153.5625 286.914062 "/>
<path style=" stroke:none;fill-rule:nonzero;fill:rgb(30.588236%,47.843137%,70.980394%);fill-opacity:1;" d="M 56.25 328.59375 L 131.25 328.59375 L 131.25 337.96875 L 56.25 337.96875 Z M 56.25 328.59375 "/>
<path style=" stroke:none;fill-rule:nonzero;fill:rgb(30.588236%,47.843137%,70.980394%);fill-opacity:1;" d="M 69.167969 304.59375 L 76.976562 299.410156 L 118.441406 361.910156 L 110.628906 367.089844 Z M 69.167969 304.59375 "/>
<path style=" stroke:none;fill-rule:nonzero;fill:rgb(30.588236%,47.843137%,70.980394%);fill-opacity:1;" d="M 69.183594 361.917969 L 110.636719 299.414062 L 118.449219 304.59375 L 76.996094 367.097656 Z M 69.183594 361.917969 "/>
<path style=" stroke:none;fill-rule:nonzero;fill:rgb(30.588236%,47.843137%,70.980394%);fill-opacity:1;" d="M 206.25 328.59375 L 281.25 328.59375 L 281.25 337.96875 L 206.25 337.96875 Z M 206.25 328.59375 "/>
<path style=" stroke:none;fill-rule:nonzero;fill:rgb(30.588236%,47.843137%,70.980394%);fill-opacity:1;" d="M 219.15625 304.585938 L 226.96875 299.402344 L 268.433594 361.898438 L 260.621094 367.082031 Z M 219.15625 304.585938 "/>
<path style=" stroke:none;fill-rule:nonzero;fill:rgb(30.588236%,47.843137%,70.980394%);fill-opacity:1;" d="M 219.179688 361.878906 L 260.648438 299.386719 L 268.457031 304.566406 L 226.992188 367.0625 Z M 219.179688 361.878906 "/>
</g>
</svg>
