<?xml version="1.0" encoding="UTF-8"?>
<svg xmlns="http://www.w3.org/2000/svg" xmlns:xlink="http://www.w3.org/1999/xlink" width="375pt" height="375pt" viewBox="0 0 375 375" version="1.1">
<g id="surface44635">
<path style=" stroke:none;fill-rule:nonzero;fill:rgb(69.01961%,75.686276%,83.137256%);fill-opacity:1;" d="M 65.625 260.15625 C 30.730469 260.15625 2.34375 231.769531 2.34375 196.875 C 2.34375 172.566406 16.597656 150.121094 38.65625 139.695312 L 39.933594 139.097656 L 40 137.6875 C 41.554688 103.847656 69.285156 77.34375 103.125 77.34375 C 106.046875 77.34375 109.078125 77.597656 112.671875 78.140625 L 115.078125 78.507812 L 115.355469 76.09375 C 119.523438 39.394531 150.539062 11.71875 187.5 11.71875 C 213.632812 11.71875 237.871094 25.898438 250.765625 48.726562 L 251.546875 50.101562 L 253.109375 49.898438 C 256.667969 49.433594 259.65625 49.21875 262.5 49.21875 C 302.5625 49.21875 335.15625 81.8125 335.15625 121.875 L 335.117188 122.570312 L 335.105469 123.9375 L 336.285156 124.621094 C 358.71875 137.597656 372.65625 161.695312 372.65625 187.5 C 372.65625 227.5625 340.0625 260.15625 300 260.15625 Z M 65.625 260.15625 "/>
<path style=" stroke:none;fill-rule:nonzero;fill:rgb(47.058824%,54.509807%,61.176473%);fill-opacity:1;" d="M 187.5 14.0625 C 212.789062 14.0625 236.25 27.789062 248.726562 49.875 L 250.28125 52.621094 L 253.410156 52.21875 C 256.875 51.773438 259.761719 51.5625 262.5 51.5625 C 301.269531 51.5625 332.8125 83.105469 332.808594 121.902344 C 332.792969 122.117188 332.78125 122.335938 332.773438 122.550781 L 332.746094 125.28125 L 335.113281 126.652344 C 356.828125 139.210938 370.3125 162.523438 370.3125 187.5 C 370.3125 226.269531 338.769531 257.8125 300 257.8125 L 65.625 257.8125 C 32.023438 257.8125 4.6875 230.476562 4.6875 196.875 C 4.6875 173.464844 18.414062 151.855469 39.65625 141.816406 L 42.207031 140.609375 L 42.335938 137.792969 C 43.835938 105.210938 70.539062 79.6875 103.125 79.6875 C 105.921875 79.6875 108.847656 79.929688 112.316406 80.460938 L 117.125 81.191406 L 117.675781 76.359375 C 121.714844 40.84375 151.730469 14.0625 187.5 14.0625 M 187.5 9.375 C 148.972656 9.375 117.273438 38.4375 113.019531 75.824219 C 109.785156 75.332031 106.5 75 103.125 75 C 67.914062 75 39.257812 102.757812 37.65625 137.578125 C 15.421875 148.082031 0 170.648438 0 196.875 C 0 233.117188 29.382812 262.5 65.625 262.5 L 300 262.5 C 341.421875 262.5 375 228.921875 375 187.5 C 375 159.742188 359.878906 135.5625 337.460938 122.59375 C 337.46875 122.351562 337.5 122.117188 337.5 121.875 C 337.5 80.453125 303.921875 46.875 262.5 46.875 C 259.210938 46.875 255.988281 47.160156 252.804688 47.574219 C 239.9375 24.789062 215.535156 9.375 187.5 9.375 Z M 187.5 9.375 "/>
<path style=" stroke:none;fill-rule:nonzero;fill:rgb(88.235295%,92.156863%,94.901961%);fill-opacity:1;" d="M 365.386719 192.1875 C 362.96875 226.1875 334.601562 253.125 300 253.125 L 65.625 253.125 C 34.609375 253.125 9.375 227.890625 9.375 196.875 L 4.6875 196.875 C 4.6875 230.476562 32.023438 257.8125 65.625 257.8125 L 300 257.8125 C 337.191406 257.8125 367.644531 228.773438 370.074219 192.1875 Z M 365.386719 192.1875 "/>
<path style=" stroke:none;fill-rule:nonzero;fill:rgb(100%,93.333334%,63.921571%);fill-opacity:1;" d="M 144.234375 363.28125 L 181.734375 278.90625 L 134.765625 278.90625 L 179.6875 171.09375 L 249.332031 171.09375 L 211.832031 246.09375 L 248.070312 246.09375 L 148.914062 363.28125 Z M 144.234375 363.28125 "/>
<path style=" stroke:none;fill-rule:nonzero;fill:rgb(76.078433%,58.823532%,32.549021%);fill-opacity:1;" d="M 245.539062 173.4375 L 211.433594 241.65625 L 208.039062 248.4375 L 243.019531 248.4375 L 147.851562 360.910156 L 182.410156 283.15625 L 185.339844 276.5625 L 138.28125 276.5625 L 181.25 173.4375 L 245.539062 173.4375 M 253.125 168.75 L 178.125 168.75 L 131.25 281.25 L 178.125 281.25 L 140.625 365.625 L 150 365.625 L 253.125 243.75 L 215.625 243.75 Z M 253.125 168.75 "/>
<path style=" stroke:none;fill-rule:nonzero;fill:rgb(100%,93.333334%,63.921571%);fill-opacity:1;" d="M 209.859375 335.15625 L 247.359375 250.78125 L 200.390625 250.78125 L 245.3125 142.96875 L 314.742188 142.96875 L 272.554688 217.96875 L 313.695312 217.96875 L 214.539062 335.15625 Z M 209.859375 335.15625 "/>
<path style=" stroke:none;fill-rule:nonzero;fill:rgb(76.078433%,58.823532%,32.549021%);fill-opacity:1;" d="M 310.734375 145.3125 L 272.476562 213.328125 L 268.546875 220.3125 L 308.644531 220.3125 L 213.476562 332.785156 L 248.035156 255.03125 L 250.964844 248.4375 L 203.90625 248.4375 L 246.875 145.3125 L 310.734375 145.3125 M 318.75 140.625 L 243.75 140.625 L 196.875 253.125 L 243.75 253.125 L 206.25 337.5 L 215.625 337.5 L 318.75 215.625 L 276.5625 215.625 Z M 318.75 140.625 "/>
</g>
</svg>
