<?xml version="1.0" encoding="UTF-8"?>
<svg xmlns="http://www.w3.org/2000/svg" xmlns:xlink="http://www.w3.org/1999/xlink" width="375pt" height="375pt" viewBox="0 0 375 375" version="1.1">
<g id="surface44734">
<path style=" stroke:none;fill-rule:nonzero;fill:rgb(70.980394%,86.666667%,96.078432%);fill-opacity:1;" d="M 51.5625 194.53125 C 45.097656 194.53125 39.84375 189.277344 39.84375 182.8125 C 39.84375 176.347656 45.097656 171.09375 51.5625 171.09375 L 288.109375 171.09375 C 313.953125 171.09375 334.984375 150.066406 334.984375 124.21875 C 334.984375 98.371094 313.953125 77.34375 288.109375 77.34375 C 270.378906 77.34375 254.363281 87.167969 246.304688 102.984375 C 244.292969 106.929688 240.289062 109.382812 235.851562 109.382812 C 233.996094 109.382812 232.214844 108.953125 230.546875 108.101562 C 224.785156 105.167969 222.492188 98.09375 225.421875 92.339844 C 237.496094 68.632812 261.515625 53.910156 288.109375 53.910156 C 326.878906 53.910156 358.421875 85.453125 358.421875 124.222656 C 358.421875 162.675781 327.140625 194.21875 288.699219 194.53125 L 288.71875 194.535156 L 51.5625 194.535156 Z M 51.5625 194.53125 "/>
<path style=" stroke:none;fill-rule:nonzero;fill:rgb(45.490196%,58.823532%,76.862746%);fill-opacity:1;" d="M 288.109375 56.25 C 325.585938 56.25 356.078125 86.742188 356.078125 124.21875 C 356.078125 161.390625 325.84375 191.878906 288.71875 192.1875 L 51.5625 192.1875 C 46.390625 192.1875 42.1875 187.984375 42.1875 182.8125 C 42.1875 177.640625 46.390625 173.4375 51.5625 173.4375 L 288.109375 173.4375 C 315.25 173.4375 337.328125 151.359375 337.328125 124.21875 C 337.328125 97.078125 315.25 75 288.109375 75 C 269.492188 75 252.675781 85.3125 244.214844 101.921875 C 242.605469 105.078125 239.40625 107.039062 235.851562 107.039062 C 234.371094 107.039062 232.941406 106.691406 231.605469 106.011719 C 227 103.664062 225.164062 98.011719 227.507812 93.402344 C 239.183594 70.484375 262.402344 56.25 288.109375 56.25 M 288.109375 51.5625 C 260.632812 51.5625 235.8125 66.777344 223.335938 91.273438 C 219.8125 98.199219 222.5625 106.664062 229.480469 110.1875 C 231.523438 111.230469 233.703125 111.726562 235.855469 111.726562 C 240.976562 111.726562 245.914062 108.921875 248.394531 104.046875 C 256.046875 89.019531 271.265625 79.6875 288.109375 79.6875 C 312.660156 79.6875 332.640625 99.664062 332.640625 124.21875 C 332.640625 148.773438 312.660156 168.75 288.109375 168.75 L 51.5625 168.75 C 43.796875 168.75 37.5 175.046875 37.5 182.8125 C 37.5 190.578125 43.796875 196.875 51.5625 196.875 L 288.71875 196.875 L 288.71875 196.871094 C 328.5 196.546875 360.765625 164.082031 360.765625 124.21875 C 360.765625 84.15625 328.171875 51.5625 288.109375 51.5625 Z M 288.109375 51.5625 "/>
<path style=" stroke:none;fill-rule:nonzero;fill:rgb(70.980394%,86.666667%,96.078432%);fill-opacity:1;" d="M 199.21875 339.84375 C 176.175781 339.84375 155.363281 327.074219 144.890625 306.535156 C 141.960938 300.773438 144.257812 293.710938 150.015625 290.773438 C 151.683594 289.921875 153.464844 289.496094 155.324219 289.496094 C 159.753906 289.496094 163.761719 291.945312 165.773438 295.898438 C 172.21875 308.546875 185.035156 316.40625 199.21875 316.40625 C 219.894531 316.40625 236.71875 299.582031 236.71875 278.90625 C 236.71875 258.230469 219.894531 241.40625 199.21875 241.40625 L 75 241.40625 C 68.535156 241.40625 63.28125 236.152344 63.28125 229.6875 C 63.28125 223.222656 68.535156 217.96875 75 217.96875 L 199.730469 217.96875 C 233.039062 218.242188 260.15625 245.574219 260.15625 278.90625 C 260.15625 312.507812 232.820312 339.84375 199.21875 339.84375 Z M 199.21875 339.84375 "/>
<path style=" stroke:none;fill-rule:nonzero;fill:rgb(45.490196%,58.823532%,76.862746%);fill-opacity:1;" d="M 199.710938 220.3125 C 231.75 220.578125 257.8125 246.863281 257.8125 278.90625 C 257.8125 311.21875 231.53125 337.5 199.21875 337.5 C 177.0625 337.5 157.046875 325.222656 146.980469 305.464844 C 144.636719 300.859375 146.476562 295.203125 151.085938 292.855469 C 152.417969 292.175781 153.84375 291.828125 155.324219 291.828125 C 158.875 291.828125 162.078125 293.792969 163.6875 296.957031 C 170.53125 310.402344 184.148438 318.75 199.21875 318.75 C 221.1875 318.75 239.0625 300.875 239.0625 278.90625 C 239.0625 256.9375 221.1875 239.0625 199.21875 239.0625 L 75 239.0625 C 69.828125 239.0625 65.625 234.859375 65.625 229.6875 C 65.625 224.515625 69.828125 220.3125 75 220.3125 L 199.710938 220.3125 M 199.730469 215.625 L 75 215.625 C 67.234375 215.625 60.9375 221.921875 60.9375 229.6875 C 60.9375 237.453125 67.234375 243.75 75 243.75 L 199.21875 243.75 C 218.605469 243.75 234.375 259.519531 234.375 278.90625 C 234.375 298.292969 218.605469 314.0625 199.21875 314.0625 C 185.921875 314.0625 173.90625 306.695312 167.863281 294.828125 C 165.378906 289.949219 160.445312 287.140625 155.324219 287.140625 C 153.179688 287.140625 151 287.640625 148.953125 288.679688 C 142.03125 292.203125 139.285156 300.671875 142.804688 307.589844 C 153.671875 328.929688 175.289062 342.1875 199.21875 342.1875 C 234.113281 342.1875 262.5 313.800781 262.5 278.90625 C 262.5 244.1875 234.390625 215.90625 199.730469 215.625 Z M 199.730469 215.625 "/>
<path style=" stroke:none;fill-rule:nonzero;fill:rgb(70.980394%,86.666667%,96.078432%);fill-opacity:1;" d="M 28.125 147.65625 C 21.660156 147.65625 16.40625 142.402344 16.40625 135.9375 C 16.40625 129.472656 21.660156 124.21875 28.125 124.21875 L 114.84375 124.21875 C 127.765625 124.21875 138.28125 113.703125 138.28125 100.78125 C 138.28125 87.859375 127.765625 77.34375 114.84375 77.34375 C 105.976562 77.34375 97.964844 82.257812 93.9375 90.164062 C 91.925781 94.109375 87.921875 96.5625 83.488281 96.566406 C 81.632812 96.566406 79.851562 96.132812 78.179688 95.289062 C 72.421875 92.359375 70.121094 85.289062 73.050781 79.527344 C 81.097656 63.726562 97.117188 53.90625 114.84375 53.90625 C 140.691406 53.90625 161.71875 74.933594 161.71875 100.78125 C 161.71875 126.4375 140.851562 147.464844 115.195312 147.65625 Z M 28.125 147.65625 "/>
<path style=" stroke:none;fill-rule:nonzero;fill:rgb(45.490196%,58.823532%,76.862746%);fill-opacity:1;" d="M 114.84375 56.25 C 139.398438 56.25 159.375 76.226562 159.375 100.78125 C 159.375 125.15625 139.546875 145.128906 115.210938 145.3125 L 28.125 145.3125 C 22.953125 145.3125 18.75 141.109375 18.75 135.9375 C 18.75 130.765625 22.953125 126.5625 28.125 126.5625 L 114.84375 126.5625 C 129.0625 126.5625 140.625 115 140.625 100.78125 C 140.625 86.5625 129.0625 75 114.84375 75 C 105.089844 75 96.277344 80.40625 91.847656 89.101562 C 90.238281 92.257812 87.039062 94.222656 83.488281 94.222656 C 82.007812 94.222656 80.578125 93.875 79.242188 93.195312 C 74.640625 90.851562 72.796875 85.199219 75.140625 80.59375 C 82.785156 65.578125 98 56.25 114.84375 56.25 M 114.84375 51.5625 C 96.226562 51.5625 79.410156 61.871094 70.964844 78.464844 C 67.445312 85.386719 70.195312 93.851562 77.117188 97.375 C 79.164062 98.414062 81.34375 98.910156 83.488281 98.910156 C 88.609375 98.910156 93.542969 96.109375 96.027344 91.226562 C 99.652344 84.109375 106.859375 79.6875 114.84375 79.6875 C 126.472656 79.6875 135.9375 89.152344 135.9375 100.78125 C 135.9375 112.410156 126.472656 121.875 114.84375 121.875 L 28.125 121.875 C 20.359375 121.875 14.0625 128.171875 14.0625 135.9375 C 14.0625 143.703125 20.359375 150 28.125 150 L 115.210938 150 C 142.179688 149.796875 164.0625 127.800781 164.0625 100.78125 C 164.0625 73.640625 141.984375 51.5625 114.84375 51.5625 Z M 114.84375 51.5625 "/>
</g>
</svg>
